solid OpenSCAD_Model
  facet normal 0 0 1
    outer loop
      vertex -9.400000095367432 -6 -5.8
      vertex -9.400000095367432 -3 -5.8
      vertex -10.200000047683716 -6 -5.8
    endloop
  endfacet
  facet normal 0 0 1
    outer loop
      vertex -9.400000095367432 -3 -5.8
      vertex -10.200000047683716 -3 -5.8
      vertex -10.200000047683716 -6 -5.8
    endloop
  endfacet
  facet normal 1 0 0
    outer loop
      vertex -9.400000095367432 -5.890061020851135 -6.842738914489746
      vertex -9.400000095367432 -3 -5.8
      vertex -9.400000095367432 -5.972439289093018 -6.324259567260742
    endloop
  endfacet
  facet normal 1 0 0
    outer loop
      vertex -9.400000095367432 -3 -5.8
      vertex -9.400000095367432 -6 -5.8
      vertex -9.400000095367432 -5.972439289093018 -6.324259567260742
    endloop
  endfacet
  facet normal 1 0 0
    outer loop
      vertex -9.400000095367432 -3.9270756244659424 -9.853668260574342
      vertex -9.400000095367432 -3.4859066009521484 -10.13823323249817
      vertex -9.400000095367432 -3 -5.8
    endloop
  endfacet
  facet normal 1 0 0
    outer loop
      vertex -9.400000095367432 -3.4859066009521484 -10.13823323249817
      vertex -9.400000095367432 -3.017332077026367 -10.374972152709962
      vertex -9.400000095367432 -3 -5.8
    endloop
  endfacet
  facet normal 1 0 0
    outer loop
      vertex -9.400000095367432 -3 -5.8
      vertex -9.400000095367432 -3.017332077026367 -10.374972152709962
      vertex -9.400000095367432 -3 -10.382575798034669
    endloop
  endfacet
  facet normal 1 0 0
    outer loop
      vertex -9.400000095367432 -3 -5.8
      vertex -9.400000095367432 -5.326056718826294 -8.307036685943604
      vertex -9.400000095367432 -5.039343595504761 -8.746812629699708
    endloop
  endfacet
  facet normal 1 0 0
    outer loop
      vertex -9.400000095367432 -5.890061020851135 -6.842738914489746
      vertex -9.400000095367432 -5.753773093223572 -7.349722671508789
      vertex -9.400000095367432 -3 -5.8
    endloop
  endfacet
  facet normal 1 0 0
    outer loop
      vertex -9.400000095367432 -5.753773093223572 -7.349722671508789
      vertex -9.400000095367432 -5.565078258514404 -7.8396227836608885
      vertex -9.400000095367432 -3 -5.8
    endloop
  endfacet
  facet normal 1 0 0
    outer loop
      vertex -9.400000095367432 -3 -5.8
      vertex -9.400000095367432 -5.565078258514404 -7.8396227836608885
      vertex -9.400000095367432 -5.326056718826294 -8.307036685943604
    endloop
  endfacet
  facet normal 1 0 0
    outer loop
      vertex -9.400000095367432 -5.039343595504761 -8.746812629699708
      vertex -9.400000095367432 -4.708099365234375 -9.154101896286011
      vertex -9.400000095367432 -3 -5.8
    endloop
  endfacet
  facet normal 1 0 0
    outer loop
      vertex -9.400000095367432 -4.708099365234375 -9.154101896286011
      vertex -9.400000095367432 -4.335975885391235 -9.524414587020875
      vertex -9.400000095367432 -3 -5.8
    endloop
  endfacet
  facet normal 1 0 0
    outer loop
      vertex -9.400000095367432 -3 -5.8
      vertex -9.400000095367432 -4.335975885391235 -9.524414587020875
      vertex -9.400000095367432 -3.9270756244659424 -9.853668260574342
    endloop
  endfacet
  facet normal 0 -1 0
    outer loop
      vertex -11 1.5 -10.599999952316285
      vertex -13 1.5 -10.599999952316285
      vertex -11 1.5 -10.774937200546265
    endloop
  endfacet
  facet normal 0 -1 0
    outer loop
      vertex -13 1.5 -10.599999952316285
      vertex -13 1.5 -12.8
      vertex -11 1.5 -10.774937200546265
    endloop
  endfacet
  facet normal 0 -1 0
    outer loop
      vertex -11 1.5 -10.774937200546265
      vertex -13 1.5 -12.8
      vertex 11 1.5 -10.774937200546265
    endloop
  endfacet
  facet normal 0 -1 0
    outer loop
      vertex -13 1.5 -12.8
      vertex 13 1.5 -12.8
      vertex 11 1.5 -10.774937200546265
    endloop
  endfacet
  facet normal 0 -1 0
    outer loop
      vertex 11 1.5 -10.774937200546265
      vertex 13 1.5 -12.8
      vertex 11 1.5 -10.599999952316285
    endloop
  endfacet
  facet normal 0 -1 0
    outer loop
      vertex 13 1.5 -12.8
      vertex 13 1.5 -10.599999952316285
      vertex 11 1.5 -10.599999952316285
    endloop
  endfacet
  facet normal -1 0 0
    outer loop
      vertex -13 -1.5 -12.8
      vertex -13 -7.5 -12.8
      vertex -13 -1.5 -10.599999952316285
    endloop
  endfacet
  facet normal -1 0 0
    outer loop
      vertex -13 -7.5 -12.8
      vertex -13 -7.5 1.2000000000000002
      vertex -13 -1.5 -10.599999952316285
    endloop
  endfacet
  facet normal -1 0 0
    outer loop
      vertex -13 -1.5 -10.599999952316285
      vertex -13 -7.5 1.2000000000000002
      vertex -13 1.5 -10.599999952316285
    endloop
  endfacet
  facet normal -1 0 0
    outer loop
      vertex -13 -7.5 1.2000000000000002
      vertex -13 7.5 1.2000000000000002
      vertex -13 1.5 -10.599999952316285
    endloop
  endfacet
  facet normal -1 0 0
    outer loop
      vertex -13 1.5 -10.599999952316285
      vertex -13 7.5 1.2000000000000002
      vertex -13 1.5 -12.8
    endloop
  endfacet
  facet normal -1 0 0
    outer loop
      vertex -13 7.5 1.2000000000000002
      vertex -13 7.5 -12.8
      vertex -13 1.5 -12.8
    endloop
  endfacet
  facet normal 0 1 0
    outer loop
      vertex 7.457475662231445 -6 -2.9779069900512694
      vertex -6.067879676818848 -6 -2.9779069900512694
      vertex -11 -6 1.2000000000000002
    endloop
  endfacet
  facet normal 0 1 0
    outer loop
      vertex -6.067879676818848 -6 -2.9779069900512694
      vertex -6.067879676818848 -6 -3.4700201034545897
      vertex -11 -6 1.2000000000000002
    endloop
  endfacet
  facet normal 0 1 0
    outer loop
      vertex -11 -6 1.2000000000000002
      vertex 11 -6 1.2000000000000002
      vertex 7.457475662231445 -6 -2.9779069900512694
    endloop
  endfacet
  facet normal 0 1 0
    outer loop
      vertex 11 -6 1.2000000000000002
      vertex 11 -6 -5.8
      vertex 7.457475662231445 -6 -2.9779069900512694
    endloop
  endfacet
  facet normal 0 1 0
    outer loop
      vertex 7.457475662231445 -6 -2.9779069900512694
      vertex 11 -6 -5.8
      vertex 7.457475662231445 -6 -3.4700201034545897
    endloop
  endfacet
  facet normal 0 1 0
    outer loop
      vertex 11 -6 -5.8
      vertex 10.19999885559082 -6 -5.8
      vertex 7.457475662231445 -6 -3.4700201034545897
    endloop
  endfacet
  facet normal 0 1 0
    outer loop
      vertex 10.19999885559082 -6 -5.8
      vertex 9.399999618530273 -6 -5.8
      vertex 7.457475662231445 -6 -3.4700201034545897
    endloop
  endfacet
  facet normal 0 1 0
    outer loop
      vertex 7.457475662231445 -6 -3.4700201034545897
      vertex 9.399999618530273 -6 -5.8
      vertex -6.067879676818848 -6 -3.4700201034545897
    endloop
  endfacet
  facet normal 0 1 0
    outer loop
      vertex 9.399999618530273 -6 -5.8
      vertex -9.400000095367432 -6 -5.8
      vertex -6.067879676818848 -6 -3.4700201034545897
    endloop
  endfacet
  facet normal 0 1 0
    outer loop
      vertex -6.067879676818848 -6 -3.4700201034545897
      vertex -9.400000095367432 -6 -5.8
      vertex -11 -6 1.2000000000000002
    endloop
  endfacet
  facet normal 0 1 0
    outer loop
      vertex -9.400000095367432 -6 -5.8
      vertex -10.200000047683716 -6 -5.8
      vertex -11 -6 1.2000000000000002
    endloop
  endfacet
  facet normal 0 1 0
    outer loop
      vertex -11 -6 1.2000000000000002
      vertex -10.200000047683716 -6 -5.8
      vertex -11 -6 -5.8
    endloop
  endfacet
  facet normal -1 0 0
    outer loop
      vertex -10.200000047683716 6 -5.8
      vertex -10.200000047683716 5.972439765930176 -6.324259567260742
      vertex -10.200000047683716 3 -5.8
    endloop
  endfacet
  facet normal -1 0 0
    outer loop
      vertex -10.200000047683716 5.972439765930176 -6.324259567260742
      vertex -10.200000047683716 5.8900604248046875 -6.842738914489746
      vertex -10.200000047683716 3 -5.8
    endloop
  endfacet
  facet normal -1 0 0
    outer loop
      vertex -10.200000047683716 3 -5.8
      vertex -10.200000047683716 5.8900604248046875 -6.842738914489746
      vertex -10.200000047683716 5.753772735595703 -7.349722671508789
    endloop
  endfacet
  facet normal -1 0 0
    outer loop
      vertex -10.200000047683716 5.753772735595703 -7.349722671508789
      vertex -10.200000047683716 5.5650787353515625 -7.8396227836608885
      vertex -10.200000047683716 3 -5.8
    endloop
  endfacet
  facet normal -1 0 0
    outer loop
      vertex -10.200000047683716 5.5650787353515625 -7.8396227836608885
      vertex -10.200000047683716 5.326057434082031 -8.307036685943604
      vertex -10.200000047683716 3 -5.8
    endloop
  endfacet
  facet normal -1 0 0
    outer loop
      vertex -10.200000047683716 3 -5.8
      vertex -10.200000047683716 5.326057434082031 -8.307036685943604
      vertex -10.200000047683716 5.039342880249023 -8.746812629699708
    endloop
  endfacet
  facet normal -1 0 0
    outer loop
      vertex -10.200000047683716 5.039342880249023 -8.746812629699708
      vertex -10.200000047683716 4.708099365234375 -9.154101896286011
      vertex -10.200000047683716 3 -5.8
    endloop
  endfacet
  facet normal -1 0 0
    outer loop
      vertex -10.200000047683716 4.708099365234375 -9.154101896286011
      vertex -10.200000047683716 4.335975646972656 -9.524414587020875
      vertex -10.200000047683716 3 -5.8
    endloop
  endfacet
  facet normal -1 0 0
    outer loop
      vertex -10.200000047683716 3 -5.8
      vertex -10.200000047683716 4.335975646972656 -9.524414587020875
      vertex -10.200000047683716 3.9270753860473633 -9.853668260574342
    endloop
  endfacet
  facet normal -1 0 0
    outer loop
      vertex -10.200000047683716 3.9270753860473633 -9.853668260574342
      vertex -10.200000047683716 3.4859066009521484 -10.13823323249817
      vertex -10.200000047683716 3 -5.8
    endloop
  endfacet
  facet normal -1 0 0
    outer loop
      vertex -10.200000047683716 3.4859066009521484 -10.13823323249817
      vertex -10.200000047683716 3.0173330307006836 -10.374972152709962
      vertex -10.200000047683716 3 -5.8
    endloop
  endfacet
  facet normal -1 0 0
    outer loop
      vertex -10.200000047683716 3 -5.8
      vertex -10.200000047683716 3.0173330307006836 -10.374972152709962
      vertex -10.200000047683716 3 -10.382575798034669
    endloop
  endfacet
  facet normal 0 -1 0
    outer loop
      vertex 10.19999885559082 6 -5.8
      vertex 11 6 -5.8
      vertex 11 6 1.2000000000000002
    endloop
  endfacet
  facet normal 0 -1 0
    outer loop
      vertex -11 6 -5.8
      vertex -10.200000047683716 6 -5.8
      vertex -11 6 1.2000000000000002
    endloop
  endfacet
  facet normal 0 -1 0
    outer loop
      vertex -10.200000047683716 6 -5.8
      vertex -9.400000095367432 6 -5.8
      vertex -11 6 1.2000000000000002
    endloop
  endfacet
  facet normal 0 -1 0
    outer loop
      vertex -11 6 1.2000000000000002
      vertex -9.400000095367432 6 -5.8
      vertex 11 6 1.2000000000000002
    endloop
  endfacet
  facet normal 0 -1 0
    outer loop
      vertex -9.400000095367432 6 -5.8
      vertex 9.399999618530273 6 -5.8
      vertex 11 6 1.2000000000000002
    endloop
  endfacet
  facet normal 0 -1 0
    outer loop
      vertex 11 6 1.2000000000000002
      vertex 9.399999618530273 6 -5.8
      vertex 10.19999885559082 6 -5.8
    endloop
  endfacet
  facet normal 0 0 -1
    outer loop
      vertex 13 -1.5 -12.8
      vertex 13 -7.5 -12.8
      vertex -13 -1.5 -12.8
    endloop
  endfacet
  facet normal 0 0 -1
    outer loop
      vertex 13 -7.5 -12.8
      vertex -13 -7.5 -12.8
      vertex -13 -1.5 -12.8
    endloop
  endfacet
  facet normal 0 1 0
    outer loop
      vertex -13 7.5 1.2000000000000002
      vertex 13 7.5 1.2000000000000002
      vertex -13 7.5 -12.8
    endloop
  endfacet
  facet normal 0 1 0
    outer loop
      vertex 13 7.5 1.2000000000000002
      vertex 13 7.5 -12.8
      vertex -13 7.5 -12.8
    endloop
  endfacet
  facet normal 0 1 0
    outer loop
      vertex -6.067879676818848 -5.600000023841858 -2.9779069900512694
      vertex 7.457475662231445 -5.600000023841858 -2.9779069900512694
      vertex -6.067879676818848 -5.600000023841858 -3.4700201034545897
    endloop
  endfacet
  facet normal 0 1 0
    outer loop
      vertex 7.457475662231445 -5.600000023841858 -2.9779069900512694
      vertex 7.457475662231445 -5.600000023841858 -3.4700201034545897
      vertex -6.067879676818848 -5.600000023841858 -3.4700201034545897
    endloop
  endfacet
  facet normal 0 1 0
    outer loop
      vertex 11 -1.5 -10.599999952316285
      vertex 13 -1.5 -10.599999952316285
      vertex 11 -1.5 -10.774937200546265
    endloop
  endfacet
  facet normal 0 1 0
    outer loop
      vertex 13 -1.5 -10.599999952316285
      vertex 13 -1.5 -12.8
      vertex 11 -1.5 -10.774937200546265
    endloop
  endfacet
  facet normal 0 1 0
    outer loop
      vertex 11 -1.5 -10.774937200546265
      vertex 13 -1.5 -12.8
      vertex -11 -1.5 -10.774937200546265
    endloop
  endfacet
  facet normal 0 1 0
    outer loop
      vertex 13 -1.5 -12.8
      vertex -13 -1.5 -12.8
      vertex -11 -1.5 -10.774937200546265
    endloop
  endfacet
  facet normal 0 1 0
    outer loop
      vertex -11 -1.5 -10.774937200546265
      vertex -13 -1.5 -12.8
      vertex -11 -1.5 -10.599999952316285
    endloop
  endfacet
  facet normal 0 1 0
    outer loop
      vertex -13 -1.5 -12.8
      vertex -13 -1.5 -10.599999952316285
      vertex -11 -1.5 -10.599999952316285
    endloop
  endfacet
  facet normal 1 0 0
    outer loop
      vertex 13 1.5 -12.8
      vertex 13 7.5 -12.8
      vertex 13 1.5 -10.599999952316285
    endloop
  endfacet
  facet normal 1 0 0
    outer loop
      vertex 13 7.5 -12.8
      vertex 13 7.5 1.2000000000000002
      vertex 13 1.5 -10.599999952316285
    endloop
  endfacet
  facet normal 1 0 0
    outer loop
      vertex 13 1.5 -10.599999952316285
      vertex 13 7.5 1.2000000000000002
      vertex 13 -1.5 -10.599999952316285
    endloop
  endfacet
  facet normal 1 0 0
    outer loop
      vertex 13 7.5 1.2000000000000002
      vertex 13 -7.5 1.2000000000000002
      vertex 13 -1.5 -10.599999952316285
    endloop
  endfacet
  facet normal 1 0 0
    outer loop
      vertex 13 -1.5 -10.599999952316285
      vertex 13 -7.5 1.2000000000000002
      vertex 13 -1.5 -12.8
    endloop
  endfacet
  facet normal 1 0 0
    outer loop
      vertex 13 -7.5 1.2000000000000002
      vertex 13 -7.5 -12.8
      vertex 13 -1.5 -12.8
    endloop
  endfacet
  facet normal 1 0 0
    outer loop
      vertex -11 -1.5 -10.599999952316285
      vertex -11 -5.972439289093018 -6.324259567260742
      vertex -11 -5.890061020851135 -6.842738914489746
    endloop
  endfacet
  facet normal 1 0 0
    outer loop
      vertex -11 -1.5 -10.774937200546265
      vertex -11 -1.5 -10.599999952316285
      vertex -11 -2.0188751220703125 -10.69508867263794
    endloop
  endfacet
  facet normal 1 0 0
    outer loop
      vertex -11 -1.5 -10.599999952316285
      vertex -11 -2.5265183448791504 -10.561275291442872
      vertex -11 -2.0188751220703125 -10.69508867263794
    endloop
  endfacet
  facet normal 1 0 0
    outer loop
      vertex -11 -1.5 -10.599999952316285
      vertex -11 -5.326056718826294 -8.307036685943604
      vertex -11 -5.039343595504761 -8.746812629699708
    endloop
  endfacet
  facet normal 1 0 0
    outer loop
      vertex -11 5.039342880249023 -8.746812629699708
      vertex -11 5.326057434082031 -8.307036685943604
      vertex -11 1.5 -10.599999952316285
    endloop
  endfacet
  facet normal 1 0 0
    outer loop
      vertex -11 5.326057434082031 -8.307036685943604
      vertex -11 5.5650787353515625 -7.8396227836608885
      vertex -11 1.5 -10.599999952316285
    endloop
  endfacet
  facet normal 1 0 0
    outer loop
      vertex -11 5.5650787353515625 -7.8396227836608885
      vertex -11 5.753772735595703 -7.349722671508789
      vertex -11 1.5 -10.599999952316285
    endloop
  endfacet
  facet normal 1 0 0
    outer loop
      vertex -11 5.753772735595703 -7.349722671508789
      vertex -11 5.8900604248046875 -6.842738914489746
      vertex -11 1.5 -10.599999952316285
    endloop
  endfacet
  facet normal 1 0 0
    outer loop
      vertex -11 1.5 -10.599999952316285
      vertex -11 5.8900604248046875 -6.842738914489746
      vertex -11 5.972439765930176 -6.324259567260742
    endloop
  endfacet
  facet normal 1 0 0
    outer loop
      vertex -11 -5.890061020851135 -6.842738914489746
      vertex -11 -5.753773093223572 -7.349722671508789
      vertex -11 -1.5 -10.599999952316285
    endloop
  endfacet
  facet normal 1 0 0
    outer loop
      vertex -11 -5.753773093223572 -7.349722671508789
      vertex -11 -5.565078258514404 -7.8396227836608885
      vertex -11 -1.5 -10.599999952316285
    endloop
  endfacet
  facet normal 1 0 0
    outer loop
      vertex -11 -1.5 -10.599999952316285
      vertex -11 -5.565078258514404 -7.8396227836608885
      vertex -11 -5.326056718826294 -8.307036685943604
    endloop
  endfacet
  facet normal 1 0 0
    outer loop
      vertex -11 -5.039343595504761 -8.746812629699708
      vertex -11 -4.708099365234375 -9.154101896286011
      vertex -11 -1.5 -10.599999952316285
    endloop
  endfacet
  facet normal 1 0 0
    outer loop
      vertex -11 -4.708099365234375 -9.154101896286011
      vertex -11 -4.335975885391235 -9.524414587020875
      vertex -11 -1.5 -10.599999952316285
    endloop
  endfacet
  facet normal 1 0 0
    outer loop
      vertex -11 -1.5 -10.599999952316285
      vertex -11 -4.335975885391235 -9.524414587020875
      vertex -11 -3.9270756244659424 -9.853668260574342
    endloop
  endfacet
  facet normal 1 0 0
    outer loop
      vertex -11 -3.9270756244659424 -9.853668260574342
      vertex -11 -3.4859066009521484 -10.13823323249817
      vertex -11 -1.5 -10.599999952316285
    endloop
  endfacet
  facet normal 1 0 0
    outer loop
      vertex -11 -3.4859066009521484 -10.13823323249817
      vertex -11 -3.017332077026367 -10.374972152709962
      vertex -11 -1.5 -10.599999952316285
    endloop
  endfacet
  facet normal 1 0 0
    outer loop
      vertex -11 -1.5 -10.599999952316285
      vertex -11 -3.017332077026367 -10.374972152709962
      vertex -11 -2.5265183448791504 -10.561275291442872
    endloop
  endfacet
  facet normal 1 0 0
    outer loop
      vertex -11 -1.5 -10.599999952316285
      vertex -11 1.5 -10.599999952316285
      vertex -11 -5.972439289093018 -6.324259567260742
    endloop
  endfacet
  facet normal 1 0 0
    outer loop
      vertex -11 1.5 -10.599999952316285
      vertex -11 5.972439765930176 -6.324259567260742
      vertex -11 -5.972439289093018 -6.324259567260742
    endloop
  endfacet
  facet normal 1 0 0
    outer loop
      vertex -11 -5.972439289093018 -6.324259567260742
      vertex -11 5.972439765930176 -6.324259567260742
      vertex -11 -6 -5.8
    endloop
  endfacet
  facet normal 1 0 0
    outer loop
      vertex -11 5.972439765930176 -6.324259567260742
      vertex -11 6 -5.8
      vertex -11 -6 -5.8
    endloop
  endfacet
  facet normal 1 0 0
    outer loop
      vertex -11 -6 -5.8
      vertex -11 6 -5.8
      vertex -11 -6 1.2000000000000002
    endloop
  endfacet
  facet normal 1 0 0
    outer loop
      vertex -11 6 -5.8
      vertex -11 6 1.2000000000000002
      vertex -11 -6 1.2000000000000002
    endloop
  endfacet
  facet normal 1 0 0
    outer loop
      vertex -11 1.5 -10.774937200546265
      vertex -11 2.0188751220703125 -10.69508867263794
      vertex -11 1.5 -10.599999952316285
    endloop
  endfacet
  facet normal 1 0 0
    outer loop
      vertex -11 2.0188751220703125 -10.69508867263794
      vertex -11 2.526517868041992 -10.561275291442872
      vertex -11 1.5 -10.599999952316285
    endloop
  endfacet
  facet normal 1 0 0
    outer loop
      vertex -11 3.9270753860473633 -9.853668260574342
      vertex -11 4.335975646972656 -9.524414587020875
      vertex -11 1.5 -10.599999952316285
    endloop
  endfacet
  facet normal 1 0 0
    outer loop
      vertex -11 4.335975646972656 -9.524414587020875
      vertex -11 4.708099365234375 -9.154101896286011
      vertex -11 1.5 -10.599999952316285
    endloop
  endfacet
  facet normal 1 0 0
    outer loop
      vertex -11 1.5 -10.599999952316285
      vertex -11 4.708099365234375 -9.154101896286011
      vertex -11 5.039342880249023 -8.746812629699708
    endloop
  endfacet
  facet normal 1 0 0
    outer loop
      vertex -11 2.526517868041992 -10.561275291442872
      vertex -11 3.0173330307006836 -10.374972152709962
      vertex -11 1.5 -10.599999952316285
    endloop
  endfacet
  facet normal 1 0 0
    outer loop
      vertex -11 3.0173330307006836 -10.374972152709962
      vertex -11 3.4859066009521484 -10.13823323249817
      vertex -11 1.5 -10.599999952316285
    endloop
  endfacet
  facet normal 1 0 0
    outer loop
      vertex -11 1.5 -10.599999952316285
      vertex -11 3.4859066009521484 -10.13823323249817
      vertex -11 3.9270753860473633 -9.853668260574342
    endloop
  endfacet
  facet normal 0 0 1
    outer loop
      vertex -11 -6 1.2000000000000002
      vertex -13 -7.5 1.2000000000000002
      vertex 11 -6 1.2000000000000002
    endloop
  endfacet
  facet normal 0 0 1
    outer loop
      vertex -13 -7.5 1.2000000000000002
      vertex 13 -7.5 1.2000000000000002
      vertex 11 -6 1.2000000000000002
    endloop
  endfacet
  facet normal 0 0 1
    outer loop
      vertex 11 -6 1.2000000000000002
      vertex 13 -7.5 1.2000000000000002
      vertex 11 6 1.2000000000000002
    endloop
  endfacet
  facet normal 0 0 1
    outer loop
      vertex 13 -7.5 1.2000000000000002
      vertex 13 7.5 1.2000000000000002
      vertex 11 6 1.2000000000000002
    endloop
  endfacet
  facet normal 0 0 1
    outer loop
      vertex 11 6 1.2000000000000002
      vertex 13 7.5 1.2000000000000002
      vertex -11 6 1.2000000000000002
    endloop
  endfacet
  facet normal 0 0 1
    outer loop
      vertex 13 7.5 1.2000000000000002
      vertex -13 7.5 1.2000000000000002
      vertex -11 6 1.2000000000000002
    endloop
  endfacet
  facet normal 0 0 1
    outer loop
      vertex -11 6 1.2000000000000002
      vertex -13 7.5 1.2000000000000002
      vertex -11 -6 1.2000000000000002
    endloop
  endfacet
  facet normal 0 0 1
    outer loop
      vertex -13 7.5 1.2000000000000002
      vertex -13 -7.5 1.2000000000000002
      vertex -11 -6 1.2000000000000002
    endloop
  endfacet
  facet normal 1 0 0
    outer loop
      vertex 10.19999885559082 3 -10.382575798034669
      vertex 10.19999885559082 3.0173330307006836 -10.374972152709962
      vertex 10.19999885559082 3 -5.8
    endloop
  endfacet
  facet normal 1 0 0
    outer loop
      vertex 10.19999885559082 3.0173330307006836 -10.374972152709962
      vertex 10.19999885559082 3.4859066009521484 -10.13823323249817
      vertex 10.19999885559082 3 -5.8
    endloop
  endfacet
  facet normal 1 0 0
    outer loop
      vertex 10.19999885559082 3 -5.8
      vertex 10.19999885559082 3.4859066009521484 -10.13823323249817
      vertex 10.19999885559082 3.9270753860473633 -9.853668260574342
    endloop
  endfacet
  facet normal 1 0 0
    outer loop
      vertex 10.19999885559082 5.039342880249023 -8.746812629699708
      vertex 10.19999885559082 5.326057434082031 -8.307036685943604
      vertex 10.19999885559082 3 -5.8
    endloop
  endfacet
  facet normal 1 0 0
    outer loop
      vertex 10.19999885559082 5.326057434082031 -8.307036685943604
      vertex 10.19999885559082 5.5650787353515625 -7.8396227836608885
      vertex 10.19999885559082 3 -5.8
    endloop
  endfacet
  facet normal 1 0 0
    outer loop
      vertex 10.19999885559082 3 -5.8
      vertex 10.19999885559082 5.5650787353515625 -7.8396227836608885
      vertex 10.19999885559082 5.753772735595703 -7.349722671508789
    endloop
  endfacet
  facet normal 1 0 0
    outer loop
      vertex 10.19999885559082 5.753772735595703 -7.349722671508789
      vertex 10.19999885559082 5.8900604248046875 -6.842738914489746
      vertex 10.19999885559082 3 -5.8
    endloop
  endfacet
  facet normal 1 0 0
    outer loop
      vertex 10.19999885559082 5.8900604248046875 -6.842738914489746
      vertex 10.19999885559082 5.972439765930176 -6.324259567260742
      vertex 10.19999885559082 3 -5.8
    endloop
  endfacet
  facet normal 1 0 0
    outer loop
      vertex 10.19999885559082 3 -5.8
      vertex 10.19999885559082 5.972439765930176 -6.324259567260742
      vertex 10.19999885559082 6 -5.8
    endloop
  endfacet
  facet normal 1 0 0
    outer loop
      vertex 10.19999885559082 3.9270753860473633 -9.853668260574342
      vertex 10.19999885559082 4.335975646972656 -9.524414587020875
      vertex 10.19999885559082 3 -5.8
    endloop
  endfacet
  facet normal 1 0 0
    outer loop
      vertex 10.19999885559082 4.335975646972656 -9.524414587020875
      vertex 10.19999885559082 4.708099365234375 -9.154101896286011
      vertex 10.19999885559082 3 -5.8
    endloop
  endfacet
  facet normal 1 0 0
    outer loop
      vertex 10.19999885559082 3 -5.8
      vertex 10.19999885559082 4.708099365234375 -9.154101896286011
      vertex 10.19999885559082 5.039342880249023 -8.746812629699708
    endloop
  endfacet
  facet normal 0 -0.998621064162314 0.05249733527835087
    outer loop
      vertex 11 6 -5.8
      vertex 10.19999885559082 6 -5.8
      vertex 11 5.972439765930176 -6.324259567260742
    endloop
  endfacet
  facet normal 0 -0.998621064162314 0.05249733527835087
    outer loop
      vertex 10.19999885559082 6 -5.8
      vertex 10.19999885559082 5.972439765930176 -6.324259567260742
      vertex 11 5.972439765930176 -6.324259567260742
    endloop
  endfacet
  facet normal 0 -0.9876116188339008 0.15691810075412466
    outer loop
      vertex 11 5.972439765930176 -6.324259567260742
      vertex 10.19999885559082 5.972439765930176 -6.324259567260742
      vertex 11 5.8900604248046875 -6.842738914489746
    endloop
  endfacet
  facet normal 0 -0.9876116188339008 0.15691810075412466
    outer loop
      vertex 10.19999885559082 5.972439765930176 -6.324259567260742
      vertex 10.19999885559082 5.8900604248046875 -6.842738914489746
      vertex 11 5.8900604248046875 -6.842738914489746
    endloop
  endfacet
  facet normal 0 -0.9657151188394418 0.25960413949881955
    outer loop
      vertex 11 5.8900604248046875 -6.842738914489746
      vertex 10.19999885559082 5.8900604248046875 -6.842738914489746
      vertex 11 5.753772735595703 -7.349722671508789
    endloop
  endfacet
  facet normal 0 -0.9657151188394418 0.25960413949881955
    outer loop
      vertex 10.19999885559082 5.8900604248046875 -6.842738914489746
      vertex 10.19999885559082 5.753772735595703 -7.349722671508789
      vertex 11 5.753772735595703 -7.349722671508789
    endloop
  endfacet
  facet normal 0 -0.933172618543207 0.3594285241897399
    outer loop
      vertex 11 5.753772735595703 -7.349722671508789
      vertex 10.19999885559082 5.753772735595703 -7.349722671508789
      vertex 11 5.5650787353515625 -7.8396227836608885
    endloop
  endfacet
  facet normal 0 -0.933172618543207 0.3594285241897399
    outer loop
      vertex 10.19999885559082 5.753772735595703 -7.349722671508789
      vertex 10.19999885559082 5.5650787353515625 -7.8396227836608885
      vertex 11 5.5650787353515625 -7.8396227836608885
    endloop
  endfacet
  facet normal 0 -0.8903413669914093 0.45529358684684834
    outer loop
      vertex 11 5.5650787353515625 -7.8396227836608885
      vertex 10.19999885559082 5.5650787353515625 -7.8396227836608885
      vertex 11 5.326057434082031 -8.307036685943604
    endloop
  endfacet
  facet normal 9.825890079310442e-18 -0.8903413669914093 0.45529358684684834
    outer loop
      vertex 10.19999885559082 5.5650787353515625 -7.8396227836608885
      vertex 10.19999885559082 5.326057434082031 -8.307036685943604
      vertex 11 5.326057434082031 -8.307036685943604
    endloop
  endfacet
  facet normal 0 -0.8376941219334806 0.5461396873310849
    outer loop
      vertex 11 5.326057434082031 -8.307036685943604
      vertex 10.19999885559082 5.326057434082031 -8.307036685943604
      vertex 11 5.039342880249023 -8.746812629699708
    endloop
  endfacet
  facet normal 0 -0.8376941219334806 0.5461396873310849
    outer loop
      vertex 10.19999885559082 5.326057434082031 -8.307036685943604
      vertex 10.19999885559082 5.039342880249023 -8.746812629699708
      vertex 11 5.039342880249023 -8.746812629699708
    endloop
  endfacet
  facet normal 0 -0.7758146756559031 0.6309608458826315
    outer loop
      vertex 11 5.039342880249023 -8.746812629699708
      vertex 10.19999885559082 5.039342880249023 -8.746812629699708
      vertex 11 4.708099365234375 -9.154101896286011
    endloop
  endfacet
  facet normal 0 -0.7758146756559031 0.6309608458826315
    outer loop
      vertex 10.19999885559082 5.039342880249023 -8.746812629699708
      vertex 10.19999885559082 4.708099365234375 -9.154101896286011
      vertex 11 4.708099365234375 -9.154101896286011
    endloop
  endfacet
  facet normal 0 -0.7053798347622451 0.7088295202026985
    outer loop
      vertex 11 4.708099365234375 -9.154101896286011
      vertex 10.19999885559082 4.708099365234375 -9.154101896286011
      vertex 11 4.335975646972656 -9.524414587020875
    endloop
  endfacet
  facet normal 0 -0.7053798347622451 0.7088295202026985
    outer loop
      vertex 10.19999885559082 4.708099365234375 -9.154101896286011
      vertex 10.19999885559082 4.335975646972656 -9.524414587020875
      vertex 11 4.335975646972656 -9.524414587020875
    endloop
  endfacet
  facet normal 0 -0.62716987302141 0.7788825010066078
    outer loop
      vertex 11 4.335975646972656 -9.524414587020875
      vertex 10.19999885559082 4.335975646972656 -9.524414587020875
      vertex 11 3.9270753860473633 -9.853668260574342
    endloop
  endfacet
  facet normal 0 -0.62716987302141 0.7788825010066078
    outer loop
      vertex 10.19999885559082 4.335975646972656 -9.524414587020875
      vertex 10.19999885559082 3.9270753860473633 -9.853668260574342
      vertex 11 3.9270753860473633 -9.853668260574342
    endloop
  endfacet
  facet normal 0 -0.5420460995180756 0.8403487526005142
    outer loop
      vertex 11 3.9270753860473633 -9.853668260574342
      vertex 10.19999885559082 3.9270753860473633 -9.853668260574342
      vertex 11 3.4859066009521484 -10.13823323249817
    endloop
  endfacet
  facet normal 0 -0.5420460995180756 0.8403487526005142
    outer loop
      vertex 10.19999885559082 3.9270753860473633 -9.853668260574342
      vertex 10.19999885559082 3.4859066009521484 -10.13823323249817
      vertex 11 3.4859066009521484 -10.13823323249817
    endloop
  endfacet
  facet normal 0 -0.45094640485712933 0.8925510293234946
    outer loop
      vertex 11 3.4859066009521484 -10.13823323249817
      vertex 10.19999885559082 3.4859066009521484 -10.13823323249817
      vertex 11 3.0173330307006836 -10.374972152709962
    endloop
  endfacet
  facet normal 0 -0.45094640485712933 0.8925510293234946
    outer loop
      vertex 10.19999885559082 3.4859066009521484 -10.13823323249817
      vertex 10.19999885559082 3.0173330307006836 -10.374972152709962
      vertex 11 3.0173330307006836 -10.374972152709962
    endloop
  endfacet
  facet normal 0 -0.35487381869505247 0.9349142061198937
    outer loop
      vertex 11 3.0173330307006836 -10.374972152709962
      vertex 10.19999885559082 3.0173330307006836 -10.374972152709962
      vertex 11 2.526517868041992 -10.561275291442872
    endloop
  endfacet
  facet normal -0.03318645796529051 -0.4015039709253137 0.915255822346366
    outer loop
      vertex 10.19999885559082 3.0173330307006836 -10.374972152709962
      vertex 10.19999885559082 3 -10.382575798034669
      vertex 11 2.526517868041992 -10.561275291442872
    endloop
  endfacet
  facet normal 0 -0.9986210641623141 0.052497335278350876
    outer loop
      vertex -10.200000047683716 6 -5.8
      vertex -11 6 -5.8
      vertex -10.200000047683716 5.972439765930176 -6.324259567260742
    endloop
  endfacet
  facet normal 0 -0.9986210641623141 0.052497335278350876
    outer loop
      vertex -11 6 -5.8
      vertex -11 5.972439765930176 -6.324259567260742
      vertex -10.200000047683716 5.972439765930176 -6.324259567260742
    endloop
  endfacet
  facet normal 0 -0.987611618833901 0.15691810075412468
    outer loop
      vertex -10.200000047683716 5.972439765930176 -6.324259567260742
      vertex -11 5.972439765930176 -6.324259567260742
      vertex -10.200000047683716 5.8900604248046875 -6.842738914489746
    endloop
  endfacet
  facet normal 0 -0.987611618833901 0.15691810075412468
    outer loop
      vertex -11 5.972439765930176 -6.324259567260742
      vertex -11 5.8900604248046875 -6.842738914489746
      vertex -10.200000047683716 5.8900604248046875 -6.842738914489746
    endloop
  endfacet
  facet normal 0 -0.9657151188394419 0.25960413949881955
    outer loop
      vertex -10.200000047683716 5.8900604248046875 -6.842738914489746
      vertex -11 5.8900604248046875 -6.842738914489746
      vertex -10.200000047683716 5.753772735595703 -7.349722671508789
    endloop
  endfacet
  facet normal 0 -0.9657151188394419 0.25960413949881955
    outer loop
      vertex -11 5.8900604248046875 -6.842738914489746
      vertex -11 5.753772735595703 -7.349722671508789
      vertex -10.200000047683716 5.753772735595703 -7.349722671508789
    endloop
  endfacet
  facet normal 0 -0.933172618543207 0.3594285241897399
    outer loop
      vertex -10.200000047683716 5.753772735595703 -7.349722671508789
      vertex -11 5.753772735595703 -7.349722671508789
      vertex -10.200000047683716 5.5650787353515625 -7.8396227836608885
    endloop
  endfacet
  facet normal 0 -0.933172618543207 0.3594285241897399
    outer loop
      vertex -11 5.753772735595703 -7.349722671508789
      vertex -11 5.5650787353515625 -7.8396227836608885
      vertex -10.200000047683716 5.5650787353515625 -7.8396227836608885
    endloop
  endfacet
  facet normal 0 -0.8903413669914093 0.45529358684684834
    outer loop
      vertex -10.200000047683716 5.5650787353515625 -7.8396227836608885
      vertex -11 5.5650787353515625 -7.8396227836608885
      vertex -10.200000047683716 5.326057434082031 -8.307036685943604
    endloop
  endfacet
  facet normal 9.82590472102851e-18 -0.8903413669914093 0.45529358684684834
    outer loop
      vertex -11 5.5650787353515625 -7.8396227836608885
      vertex -11 5.326057434082031 -8.307036685943604
      vertex -10.200000047683716 5.326057434082031 -8.307036685943604
    endloop
  endfacet
  facet normal 0 -0.8376941219334806 0.5461396873310849
    outer loop
      vertex -10.200000047683716 5.326057434082031 -8.307036685943604
      vertex -11 5.326057434082031 -8.307036685943604
      vertex -10.200000047683716 5.039342880249023 -8.746812629699708
    endloop
  endfacet
  facet normal 0 -0.8376941219334806 0.5461396873310849
    outer loop
      vertex -11 5.326057434082031 -8.307036685943604
      vertex -11 5.039342880249023 -8.746812629699708
      vertex -10.200000047683716 5.039342880249023 -8.746812629699708
    endloop
  endfacet
  facet normal 0 -0.7758146756559032 0.6309608458826315
    outer loop
      vertex -10.200000047683716 5.039342880249023 -8.746812629699708
      vertex -11 5.039342880249023 -8.746812629699708
      vertex -10.200000047683716 4.708099365234375 -9.154101896286011
    endloop
  endfacet
  facet normal 0 -0.7758146756559032 0.6309608458826315
    outer loop
      vertex -11 5.039342880249023 -8.746812629699708
      vertex -11 4.708099365234375 -9.154101896286011
      vertex -10.200000047683716 4.708099365234375 -9.154101896286011
    endloop
  endfacet
  facet normal 0 -0.7053798347622451 0.7088295202026985
    outer loop
      vertex -10.200000047683716 4.708099365234375 -9.154101896286011
      vertex -11 4.708099365234375 -9.154101896286011
      vertex -10.200000047683716 4.335975646972656 -9.524414587020875
    endloop
  endfacet
  facet normal 0 -0.7053798347622451 0.7088295202026985
    outer loop
      vertex -11 4.708099365234375 -9.154101896286011
      vertex -11 4.335975646972656 -9.524414587020875
      vertex -10.200000047683716 4.335975646972656 -9.524414587020875
    endloop
  endfacet
  facet normal 0 -0.62716987302141 0.7788825010066078
    outer loop
      vertex -10.200000047683716 4.335975646972656 -9.524414587020875
      vertex -11 4.335975646972656 -9.524414587020875
      vertex -10.200000047683716 3.9270753860473633 -9.853668260574342
    endloop
  endfacet
  facet normal 0 -0.62716987302141 0.7788825010066078
    outer loop
      vertex -11 4.335975646972656 -9.524414587020875
      vertex -11 3.9270753860473633 -9.853668260574342
      vertex -10.200000047683716 3.9270753860473633 -9.853668260574342
    endloop
  endfacet
  facet normal 0 -0.5420460995180756 0.8403487526005142
    outer loop
      vertex -10.200000047683716 3.9270753860473633 -9.853668260574342
      vertex -11 3.9270753860473633 -9.853668260574342
      vertex -10.200000047683716 3.4859066009521484 -10.13823323249817
    endloop
  endfacet
  facet normal 0 -0.5420460995180756 0.8403487526005142
    outer loop
      vertex -11 3.9270753860473633 -9.853668260574342
      vertex -11 3.4859066009521484 -10.13823323249817
      vertex -10.200000047683716 3.4859066009521484 -10.13823323249817
    endloop
  endfacet
  facet normal 0 -0.4509464048571294 0.8925510293234947
    outer loop
      vertex -10.200000047683716 3.4859066009521484 -10.13823323249817
      vertex -11 3.4859066009521484 -10.13823323249817
      vertex -10.200000047683716 3.0173330307006836 -10.374972152709962
    endloop
  endfacet
  facet normal 0 -0.4509464048571294 0.8925510293234947
    outer loop
      vertex -11 3.4859066009521484 -10.13823323249817
      vertex -11 3.0173330307006836 -10.374972152709962
      vertex -10.200000047683716 3.0173330307006836 -10.374972152709962
    endloop
  endfacet
  facet normal 0 -0.40172525011084836 0.9157602434171164
    outer loop
      vertex -10.200000047683716 3.0173330307006836 -10.374972152709962
      vertex -11 3.0173330307006836 -10.374972152709962
      vertex -10.200000047683716 3 -10.382575798034669
    endloop
  endfacet
  facet normal 0.001197145761074516 -0.3548735643998399 0.9349135361797792
    outer loop
      vertex -11 3.0173330307006836 -10.374972152709962
      vertex -11 2.526517868041992 -10.561275291442872
      vertex -10.200000047683716 3 -10.382575798034669
    endloop
  endfacet
  facet normal 0 -0.35310393692737385 0.9355841008302722
    outer loop
      vertex -10.200000047683716 3 -10.382575798034669
      vertex -11 2.526517868041992 -10.561275291442872
      vertex -9.400000095367432 3 -10.382575798034669
    endloop
  endfacet
  facet normal 0 -0.3531039369273739 0.9355841008302724
    outer loop
      vertex -11 2.526517868041992 -10.561275291442872
      vertex 9.399999618530273 3 -10.382575798034669
      vertex -9.400000095367432 3 -10.382575798034669
    endloop
  endfacet
  facet normal 0 -0.4017252501108484 0.9157602434171165
    outer loop
      vertex -9.400000095367432 3 -10.382575798034669
      vertex 9.399999618530273 3 -10.382575798034669
      vertex -9.400000095367432 3.0173330307006836 -10.374972152709962
    endloop
  endfacet
  facet normal 0 -0.4017252501108484 0.9157602434171165
    outer loop
      vertex 9.399999618530273 3 -10.382575798034669
      vertex 9.399999618530273 3.0173330307006836 -10.374972152709962
      vertex -9.400000095367432 3.0173330307006836 -10.374972152709962
    endloop
  endfacet
  facet normal 0 -0.4509464048571294 0.8925510293234947
    outer loop
      vertex -9.400000095367432 3.0173330307006836 -10.374972152709962
      vertex 9.399999618530273 3.0173330307006836 -10.374972152709962
      vertex -9.400000095367432 3.4859066009521484 -10.13823323249817
    endloop
  endfacet
  facet normal 0 -0.4509464048571294 0.8925510293234947
    outer loop
      vertex 9.399999618530273 3.0173330307006836 -10.374972152709962
      vertex 9.399999618530273 3.4859066009521484 -10.13823323249817
      vertex -9.400000095367432 3.4859066009521484 -10.13823323249817
    endloop
  endfacet
  facet normal 0 -0.5420460995180756 0.8403487526005143
    outer loop
      vertex -9.400000095367432 3.4859066009521484 -10.13823323249817
      vertex 9.399999618530273 3.4859066009521484 -10.13823323249817
      vertex -9.400000095367432 3.9270753860473633 -9.853668260574342
    endloop
  endfacet
  facet normal 0 -0.5420460995180756 0.8403487526005143
    outer loop
      vertex 9.399999618530273 3.4859066009521484 -10.13823323249817
      vertex 9.399999618530273 3.9270753860473633 -9.853668260574342
      vertex -9.400000095367432 3.9270753860473633 -9.853668260574342
    endloop
  endfacet
  facet normal 0 -0.62716987302141 0.7788825010066078
    outer loop
      vertex -9.400000095367432 3.9270753860473633 -9.853668260574342
      vertex 9.399999618530273 3.9270753860473633 -9.853668260574342
      vertex -9.400000095367432 4.335975646972656 -9.524414587020875
    endloop
  endfacet
  facet normal 0 -0.62716987302141 0.7788825010066078
    outer loop
      vertex 9.399999618530273 3.9270753860473633 -9.853668260574342
      vertex 9.399999618530273 4.335975646972656 -9.524414587020875
      vertex -9.400000095367432 4.335975646972656 -9.524414587020875
    endloop
  endfacet
  facet normal 0 -0.705379834762245 0.7088295202026984
    outer loop
      vertex -9.400000095367432 4.335975646972656 -9.524414587020875
      vertex 9.399999618530273 4.335975646972656 -9.524414587020875
      vertex -9.400000095367432 4.708099365234375 -9.154101896286011
    endloop
  endfacet
  facet normal 0 -0.705379834762245 0.7088295202026984
    outer loop
      vertex 9.399999618530273 4.335975646972656 -9.524414587020875
      vertex 9.399999618530273 4.708099365234375 -9.154101896286011
      vertex -9.400000095367432 4.708099365234375 -9.154101896286011
    endloop
  endfacet
  facet normal 0 -0.7758146756559031 0.6309608458826315
    outer loop
      vertex -9.400000095367432 4.708099365234375 -9.154101896286011
      vertex 9.399999618530273 4.708099365234375 -9.154101896286011
      vertex -9.400000095367432 5.039342880249023 -8.746812629699708
    endloop
  endfacet
  facet normal 0 -0.7758146756559031 0.6309608458826315
    outer loop
      vertex 9.399999618530273 4.708099365234375 -9.154101896286011
      vertex 9.399999618530273 5.039342880249023 -8.746812629699708
      vertex -9.400000095367432 5.039342880249023 -8.746812629699708
    endloop
  endfacet
  facet normal 0 -0.8376941219334805 0.5461396873310848
    outer loop
      vertex -9.400000095367432 5.039342880249023 -8.746812629699708
      vertex 9.399999618530273 5.039342880249023 -8.746812629699708
      vertex -9.400000095367432 5.326057434082031 -8.307036685943604
    endloop
  endfacet
  facet normal 0 -0.8376941219334805 0.5461396873310848
    outer loop
      vertex 9.399999618530273 5.039342880249023 -8.746812629699708
      vertex 9.399999618530273 5.326057434082031 -8.307036685943604
      vertex -9.400000095367432 5.326057434082031 -8.307036685943604
    endloop
  endfacet
  facet normal 0 -0.8903413669914092 0.45529358684684834
    outer loop
      vertex -9.400000095367432 5.326057434082031 -8.307036685943604
      vertex 9.399999618530273 5.326057434082031 -8.307036685943604
      vertex -9.400000095367432 5.5650787353515625 -7.8396227836608885
    endloop
  endfacet
  facet normal 4.1812358659113173e-19 -0.8903413669914092 0.45529358684684834
    outer loop
      vertex 9.399999618530273 5.326057434082031 -8.307036685943604
      vertex 9.399999618530273 5.5650787353515625 -7.8396227836608885
      vertex -9.400000095367432 5.5650787353515625 -7.8396227836608885
    endloop
  endfacet
  facet normal 0 -0.9331726185432069 0.3594285241897399
    outer loop
      vertex -9.400000095367432 5.5650787353515625 -7.8396227836608885
      vertex 9.399999618530273 5.5650787353515625 -7.8396227836608885
      vertex -9.400000095367432 5.753772735595703 -7.349722671508789
    endloop
  endfacet
  facet normal 0 -0.9331726185432069 0.3594285241897399
    outer loop
      vertex 9.399999618530273 5.5650787353515625 -7.8396227836608885
      vertex 9.399999618530273 5.753772735595703 -7.349722671508789
      vertex -9.400000095367432 5.753772735595703 -7.349722671508789
    endloop
  endfacet
  facet normal 0 -0.9657151188394419 0.25960413949881955
    outer loop
      vertex -9.400000095367432 5.753772735595703 -7.349722671508789
      vertex 9.399999618530273 5.753772735595703 -7.349722671508789
      vertex -9.400000095367432 5.8900604248046875 -6.842738914489746
    endloop
  endfacet
  facet normal 0 -0.9657151188394419 0.25960413949881955
    outer loop
      vertex 9.399999618530273 5.753772735595703 -7.349722671508789
      vertex 9.399999618530273 5.8900604248046875 -6.842738914489746
      vertex -9.400000095367432 5.8900604248046875 -6.842738914489746
    endloop
  endfacet
  facet normal 0 -0.987611618833901 0.15691810075412468
    outer loop
      vertex -9.400000095367432 5.8900604248046875 -6.842738914489746
      vertex 9.399999618530273 5.8900604248046875 -6.842738914489746
      vertex -9.400000095367432 5.972439765930176 -6.324259567260742
    endloop
  endfacet
  facet normal 0 -0.987611618833901 0.15691810075412468
    outer loop
      vertex 9.399999618530273 5.8900604248046875 -6.842738914489746
      vertex 9.399999618530273 5.972439765930176 -6.324259567260742
      vertex -9.400000095367432 5.972439765930176 -6.324259567260742
    endloop
  endfacet
  facet normal 0 -0.9986210641623141 0.052497335278350876
    outer loop
      vertex -9.400000095367432 5.972439765930176 -6.324259567260742
      vertex 9.399999618530273 5.972439765930176 -6.324259567260742
      vertex -9.400000095367432 6 -5.8
    endloop
  endfacet
  facet normal 0 -0.9986210641623141 0.052497335278350876
    outer loop
      vertex 9.399999618530273 5.972439765930176 -6.324259567260742
      vertex 9.399999618530273 6 -5.8
      vertex -9.400000095367432 6 -5.8
    endloop
  endfacet
  facet normal 0 -0.35310393692737385 0.9355841008302723
    outer loop
      vertex 10.19999885559082 3 -10.382575798034669
      vertex 9.399999618530273 3 -10.382575798034669
      vertex 11 2.526517868041992 -10.561275291442872
    endloop
  endfacet
  facet normal 0 -0.35310393692737385 0.9355841008302723
    outer loop
      vertex 9.399999618530273 3 -10.382575798034669
      vertex -11 2.526517868041992 -10.561275291442872
      vertex 11 2.526517868041992 -10.561275291442872
    endloop
  endfacet
  facet normal 0 -0.25489087140075484 0.9669698256287854
    outer loop
      vertex 11 2.526517868041992 -10.561275291442872
      vertex -11 2.526517868041992 -10.561275291442872
      vertex 11 2.0188751220703125 -10.69508867263794
    endloop
  endfacet
  facet normal 0 -0.25489087140075484 0.9669698256287854
    outer loop
      vertex -11 2.526517868041992 -10.561275291442872
      vertex -11 2.0188751220703125 -10.69508867263794
      vertex 11 2.0188751220703125 -10.69508867263794
    endloop
  endfacet
  facet normal 0 -0.15209735104954197 0.9883655173081021
    outer loop
      vertex 11 2.0188751220703125 -10.69508867263794
      vertex -11 2.0188751220703125 -10.69508867263794
      vertex 11 1.5 -10.774937200546265
    endloop
  endfacet
  facet normal 0 -0.15209735104954197 0.9883655173081021
    outer loop
      vertex -11 2.0188751220703125 -10.69508867263794
      vertex -11 1.5 -10.774937200546265
      vertex 11 1.5 -10.774937200546265
    endloop
  endfacet
  facet normal 0 0 -1
    outer loop
      vertex -13 -1.5 -10.599999952316285
      vertex -13 1.5 -10.599999952316285
      vertex -11 -1.5 -10.599999952316285
    endloop
  endfacet
  facet normal 0 0 -1
    outer loop
      vertex -13 1.5 -10.599999952316285
      vertex -11 1.5 -10.599999952316285
      vertex -11 -1.5 -10.599999952316285
    endloop
  endfacet
  facet normal 0 0.9986210165448616 0.05249824106489092
    outer loop
      vertex -9.400000095367432 -6 -5.8
      vertex 9.399999618530273 -6 -5.8
      vertex -9.400000095367432 -5.972439289093018 -6.324259567260742
    endloop
  endfacet
  facet normal 0 0.9986210165448616 0.05249824106489092
    outer loop
      vertex 9.399999618530273 -6 -5.8
      vertex 9.399999618530273 -5.972439289093018 -6.324259567260742
      vertex -9.400000095367432 -5.972439289093018 -6.324259567260742
    endloop
  endfacet
  facet normal 0 0.987611935545488 0.15691610742079645
    outer loop
      vertex -9.400000095367432 -5.972439289093018 -6.324259567260742
      vertex 9.399999618530273 -5.972439289093018 -6.324259567260742
      vertex -9.400000095367432 -5.890061020851135 -6.842738914489746
    endloop
  endfacet
  facet normal 0 0.987611935545488 0.15691610742079645
    outer loop
      vertex 9.399999618530273 -5.972439289093018 -6.324259567260742
      vertex 9.399999618530273 -5.890061020851135 -6.842738914489746
      vertex -9.400000095367432 -5.890061020851135 -6.842738914489746
    endloop
  endfacet
  facet normal 0 0.9657150049834143 0.2596045630374861
    outer loop
      vertex -9.400000095367432 -5.890061020851135 -6.842738914489746
      vertex 9.399999618530273 -5.890061020851135 -6.842738914489746
      vertex -9.400000095367432 -5.753773093223572 -7.349722671508789
    endloop
  endfacet
  facet normal 0 0.9657150049834143 0.2596045630374861
    outer loop
      vertex 9.399999618530273 -5.890061020851135 -6.842738914489746
      vertex 9.399999618530273 -5.753773093223572 -7.349722671508789
      vertex -9.400000095367432 -5.753773093223572 -7.349722671508789
    endloop
  endfacet
  facet normal 0 0.933172085407583 0.35942990834940625
    outer loop
      vertex -9.400000095367432 -5.753773093223572 -7.349722671508789
      vertex 9.399999618530273 -5.753773093223572 -7.349722671508789
      vertex -9.400000095367432 -5.565078258514404 -7.8396227836608885
    endloop
  endfacet
  facet normal 0 0.933172085407583 0.35942990834940625
    outer loop
      vertex 9.399999618530273 -5.753773093223572 -7.349722671508789
      vertex 9.399999618530273 -5.565078258514404 -7.8396227836608885
      vertex -9.400000095367432 -5.565078258514404 -7.8396227836608885
    endloop
  endfacet
  facet normal 0 0.8903411828959025 0.4552939468513997
    outer loop
      vertex -9.400000095367432 -5.565078258514404 -7.8396227836608885
      vertex 9.399999618530273 -5.565078258514404 -7.8396227836608885
      vertex -9.400000095367432 -5.326056718826294 -8.307036685943604
    endloop
  endfacet
  facet normal -4.1814495557001544e-19 0.8903411828959025 0.4552939468513997
    outer loop
      vertex 9.399999618530273 -5.565078258514404 -7.8396227836608885
      vertex 9.399999618530273 -5.326056718826294 -8.307036685943604
      vertex -9.400000095367432 -5.326056718826294 -8.307036685943604
    endloop
  endfacet
  facet normal 0 0.8376953685544731 0.5461377752018126
    outer loop
      vertex -9.400000095367432 -5.326056718826294 -8.307036685943604
      vertex 9.399999618530273 -5.326056718826294 -8.307036685943604
      vertex -9.400000095367432 -5.039343595504761 -8.746812629699708
    endloop
  endfacet
  facet normal 0 0.8376953685544731 0.5461377752018126
    outer loop
      vertex 9.399999618530273 -5.326056718826294 -8.307036685943604
      vertex 9.399999618530273 -5.039343595504761 -8.746812629699708
      vertex -9.400000095367432 -5.039343595504761 -8.746812629699708
    endloop
  endfacet
  facet normal 0 0.7758140087313827 0.6309616659165136
    outer loop
      vertex -9.400000095367432 -5.039343595504761 -8.746812629699708
      vertex 9.399999618530273 -5.039343595504761 -8.746812629699708
      vertex -9.400000095367432 -4.708099365234375 -9.154101896286011
    endloop
  endfacet
  facet normal 0 0.7758140087313827 0.6309616659165136
    outer loop
      vertex 9.399999618530273 -5.039343595504761 -8.746812629699708
      vertex 9.399999618530273 -4.708099365234375 -9.154101896286011
      vertex -9.400000095367432 -4.708099365234375 -9.154101896286011
    endloop
  endfacet
  facet normal 0 0.705380061832081 0.7088292942378788
    outer loop
      vertex -9.400000095367432 -4.708099365234375 -9.154101896286011
      vertex 9.399999618530273 -4.708099365234375 -9.154101896286011
      vertex -9.400000095367432 -4.335975885391235 -9.524414587020875
    endloop
  endfacet
  facet normal 0 0.705380061832081 0.7088292942378788
    outer loop
      vertex 9.399999618530273 -4.708099365234375 -9.154101896286011
      vertex 9.399999618530273 -4.335975885391235 -9.524414587020875
      vertex -9.400000095367432 -4.335975885391235 -9.524414587020875
    endloop
  endfacet
  facet normal 0 0.62716987302141 0.7788825010066078
    outer loop
      vertex -9.400000095367432 -4.335975885391235 -9.524414587020875
      vertex 9.399999618530273 -4.335975885391235 -9.524414587020875
      vertex -9.400000095367432 -3.9270756244659424 -9.853668260574342
    endloop
  endfacet
  facet normal 0 0.62716987302141 0.7788825010066078
    outer loop
      vertex 9.399999618530273 -4.335975885391235 -9.524414587020875
      vertex 9.399999618530273 -3.9270756244659424 -9.853668260574342
      vertex -9.400000095367432 -3.9270756244659424 -9.853668260574342
    endloop
  endfacet
  facet normal 0 0.5420458926514021 0.8403488860346903
    outer loop
      vertex -9.400000095367432 -3.9270756244659424 -9.853668260574342
      vertex 9.399999618530273 -3.9270756244659424 -9.853668260574342
      vertex -9.400000095367432 -3.4859066009521484 -10.13823323249817
    endloop
  endfacet
  facet normal 0 0.5420458926514021 0.8403488860346903
    outer loop
      vertex 9.399999618530273 -3.9270756244659424 -9.853668260574342
      vertex 9.399999618530273 -3.4859066009521484 -10.13823323249817
      vertex -9.400000095367432 -3.4859066009521484 -10.13823323249817
    endloop
  endfacet
  facet normal 0 0.4509456736966264 0.892551398729673
    outer loop
      vertex -9.400000095367432 -3.4859066009521484 -10.13823323249817
      vertex 9.399999618530273 -3.4859066009521484 -10.13823323249817
      vertex -9.400000095367432 -3.017332077026367 -10.374972152709962
    endloop
  endfacet
  facet normal 0 0.4509456736966264 0.892551398729673
    outer loop
      vertex 9.399999618530273 -3.4859066009521484 -10.13823323249817
      vertex 9.399999618530273 -3.017332077026367 -10.374972152709962
      vertex -9.400000095367432 -3.017332077026367 -10.374972152709962
    endloop
  endfacet
  facet normal 0 0.40174378698031865 0.9157521114486782
    outer loop
      vertex -9.400000095367432 -3.017332077026367 -10.374972152709962
      vertex 9.399999618530273 -3.017332077026367 -10.374972152709962
      vertex -9.400000095367432 -3 -10.382575798034669
    endloop
  endfacet
  facet normal 0 0.40174378698031865 0.9157521114486782
    outer loop
      vertex 9.399999618530273 -3.017332077026367 -10.374972152709962
      vertex 9.399999618530273 -3 -10.382575798034669
      vertex -9.400000095367432 -3 -10.382575798034669
    endloop
  endfacet
  facet normal 0 0.35310424819580566 0.9355839833526838
    outer loop
      vertex -9.400000095367432 -3 -10.382575798034669
      vertex 9.399999618530273 -3 -10.382575798034669
      vertex 11 -2.5265183448791504 -10.561275291442872
    endloop
  endfacet
  facet normal 0 0.3531042481958056 0.9355839833526837
    outer loop
      vertex 9.399999618530273 -3 -10.382575798034669
      vertex 10.19999885559082 -3 -10.382575798034669
      vertex 11 -2.5265183448791504 -10.561275291442872
    endloop
  endfacet
  facet normal -0.0011975441704448312 0.354874468278716 0.9349131925755771
    outer loop
      vertex 11 -2.5265183448791504 -10.561275291442872
      vertex 10.19999885559082 -3 -10.382575798034669
      vertex 11 -3.017332077026367 -10.374972152709962
    endloop
  endfacet
  facet normal 0 0.40174378698031865 0.9157521114486782
    outer loop
      vertex 10.19999885559082 -3 -10.382575798034669
      vertex 10.19999885559082 -3.017332077026367 -10.374972152709962
      vertex 11 -3.017332077026367 -10.374972152709962
    endloop
  endfacet
  facet normal 0 0.45094567369662636 0.892551398729673
    outer loop
      vertex 11 -3.017332077026367 -10.374972152709962
      vertex 10.19999885559082 -3.017332077026367 -10.374972152709962
      vertex 11 -3.4859066009521484 -10.13823323249817
    endloop
  endfacet
  facet normal 0 0.45094567369662636 0.892551398729673
    outer loop
      vertex 10.19999885559082 -3.017332077026367 -10.374972152709962
      vertex 10.19999885559082 -3.4859066009521484 -10.13823323249817
      vertex 11 -3.4859066009521484 -10.13823323249817
    endloop
  endfacet
  facet normal 0 0.5420458926514021 0.8403488860346902
    outer loop
      vertex 11 -3.4859066009521484 -10.13823323249817
      vertex 10.19999885559082 -3.4859066009521484 -10.13823323249817
      vertex 11 -3.9270756244659424 -9.853668260574342
    endloop
  endfacet
  facet normal 0 0.5420458926514021 0.8403488860346902
    outer loop
      vertex 10.19999885559082 -3.4859066009521484 -10.13823323249817
      vertex 10.19999885559082 -3.9270756244659424 -9.853668260574342
      vertex 11 -3.9270756244659424 -9.853668260574342
    endloop
  endfacet
  facet normal 0 0.62716987302141 0.7788825010066078
    outer loop
      vertex 11 -3.9270756244659424 -9.853668260574342
      vertex 10.19999885559082 -3.9270756244659424 -9.853668260574342
      vertex 11 -4.335975885391235 -9.524414587020875
    endloop
  endfacet
  facet normal 0 0.62716987302141 0.7788825010066078
    outer loop
      vertex 10.19999885559082 -3.9270756244659424 -9.853668260574342
      vertex 10.19999885559082 -4.335975885391235 -9.524414587020875
      vertex 11 -4.335975885391235 -9.524414587020875
    endloop
  endfacet
  facet normal 0 0.705380061832081 0.7088292942378788
    outer loop
      vertex 11 -4.335975885391235 -9.524414587020875
      vertex 10.19999885559082 -4.335975885391235 -9.524414587020875
      vertex 11 -4.708099365234375 -9.154101896286011
    endloop
  endfacet
  facet normal 0 0.705380061832081 0.7088292942378788
    outer loop
      vertex 10.19999885559082 -4.335975885391235 -9.524414587020875
      vertex 10.19999885559082 -4.708099365234375 -9.154101896286011
      vertex 11 -4.708099365234375 -9.154101896286011
    endloop
  endfacet
  facet normal 0 0.7758140087313826 0.6309616659165135
    outer loop
      vertex 11 -4.708099365234375 -9.154101896286011
      vertex 10.19999885559082 -4.708099365234375 -9.154101896286011
      vertex 11 -5.039343595504761 -8.746812629699708
    endloop
  endfacet
  facet normal 0 0.7758140087313826 0.6309616659165135
    outer loop
      vertex 10.19999885559082 -4.708099365234375 -9.154101896286011
      vertex 10.19999885559082 -5.039343595504761 -8.746812629699708
      vertex 11 -5.039343595504761 -8.746812629699708
    endloop
  endfacet
  facet normal 0 0.837695368554473 0.5461377752018126
    outer loop
      vertex 11 -5.039343595504761 -8.746812629699708
      vertex 10.19999885559082 -5.039343595504761 -8.746812629699708
      vertex 11 -5.326056718826294 -8.307036685943604
    endloop
  endfacet
  facet normal 0 0.837695368554473 0.5461377752018126
    outer loop
      vertex 10.19999885559082 -5.039343595504761 -8.746812629699708
      vertex 10.19999885559082 -5.326056718826294 -8.307036685943604
      vertex 11 -5.326056718826294 -8.307036685943604
    endloop
  endfacet
  facet normal 0 0.8903411828959025 0.4552939468513996
    outer loop
      vertex 11 -5.326056718826294 -8.307036685943604
      vertex 10.19999885559082 -5.326056718826294 -8.307036685943604
      vertex 11 -5.565078258514404 -7.8396227836608885
    endloop
  endfacet
  facet normal -9.826392249588205e-18 0.8903411828959025 0.4552939468513996
    outer loop
      vertex 10.19999885559082 -5.326056718826294 -8.307036685943604
      vertex 10.19999885559082 -5.565078258514404 -7.8396227836608885
      vertex 11 -5.565078258514404 -7.8396227836608885
    endloop
  endfacet
  facet normal 0 0.9331720854075831 0.35942990834940625
    outer loop
      vertex 11 -5.565078258514404 -7.8396227836608885
      vertex 10.19999885559082 -5.565078258514404 -7.8396227836608885
      vertex 11 -5.753773093223572 -7.349722671508789
    endloop
  endfacet
  facet normal 0 0.9331720854075831 0.35942990834940625
    outer loop
      vertex 10.19999885559082 -5.565078258514404 -7.8396227836608885
      vertex 10.19999885559082 -5.753773093223572 -7.349722671508789
      vertex 11 -5.753773093223572 -7.349722671508789
    endloop
  endfacet
  facet normal 0 0.9657150049834143 0.2596045630374861
    outer loop
      vertex 11 -5.753773093223572 -7.349722671508789
      vertex 10.19999885559082 -5.753773093223572 -7.349722671508789
      vertex 11 -5.890061020851135 -6.842738914489746
    endloop
  endfacet
  facet normal 0 0.9657150049834143 0.2596045630374861
    outer loop
      vertex 10.19999885559082 -5.753773093223572 -7.349722671508789
      vertex 10.19999885559082 -5.890061020851135 -6.842738914489746
      vertex 11 -5.890061020851135 -6.842738914489746
    endloop
  endfacet
  facet normal 0 0.987611935545488 0.15691610742079645
    outer loop
      vertex 11 -5.890061020851135 -6.842738914489746
      vertex 10.19999885559082 -5.890061020851135 -6.842738914489746
      vertex 11 -5.972439289093018 -6.324259567260742
    endloop
  endfacet
  facet normal 0 0.987611935545488 0.15691610742079645
    outer loop
      vertex 10.19999885559082 -5.890061020851135 -6.842738914489746
      vertex 10.19999885559082 -5.972439289093018 -6.324259567260742
      vertex 11 -5.972439289093018 -6.324259567260742
    endloop
  endfacet
  facet normal 0 0.9986210165448616 0.05249824106489092
    outer loop
      vertex 11 -5.972439289093018 -6.324259567260742
      vertex 10.19999885559082 -5.972439289093018 -6.324259567260742
      vertex 11 -6 -5.8
    endloop
  endfacet
  facet normal 0 0.9986210165448616 0.05249824106489092
    outer loop
      vertex 10.19999885559082 -5.972439289093018 -6.324259567260742
      vertex 10.19999885559082 -6 -5.8
      vertex 11 -6 -5.8
    endloop
  endfacet
  facet normal 0 0.9986210165448616 0.05249824106489092
    outer loop
      vertex -11 -6 -5.8
      vertex -10.200000047683716 -6 -5.8
      vertex -11 -5.972439289093018 -6.324259567260742
    endloop
  endfacet
  facet normal 0 0.9986210165448616 0.05249824106489092
    outer loop
      vertex -10.200000047683716 -6 -5.8
      vertex -10.200000047683716 -5.972439289093018 -6.324259567260742
      vertex -11 -5.972439289093018 -6.324259567260742
    endloop
  endfacet
  facet normal 0 0.987611935545488 0.15691610742079648
    outer loop
      vertex -11 -5.972439289093018 -6.324259567260742
      vertex -10.200000047683716 -5.972439289093018 -6.324259567260742
      vertex -11 -5.890061020851135 -6.842738914489746
    endloop
  endfacet
  facet normal 0 0.987611935545488 0.15691610742079648
    outer loop
      vertex -10.200000047683716 -5.972439289093018 -6.324259567260742
      vertex -10.200000047683716 -5.890061020851135 -6.842738914489746
      vertex -11 -5.890061020851135 -6.842738914489746
    endloop
  endfacet
  facet normal 0 0.9657150049834142 0.2596045630374861
    outer loop
      vertex -11 -5.890061020851135 -6.842738914489746
      vertex -10.200000047683716 -5.890061020851135 -6.842738914489746
      vertex -11 -5.753773093223572 -7.349722671508789
    endloop
  endfacet
  facet normal 0 0.9657150049834142 0.2596045630374861
    outer loop
      vertex -10.200000047683716 -5.890061020851135 -6.842738914489746
      vertex -10.200000047683716 -5.753773093223572 -7.349722671508789
      vertex -11 -5.753773093223572 -7.349722671508789
    endloop
  endfacet
  facet normal 0 0.933172085407583 0.35942990834940625
    outer loop
      vertex -11 -5.753773093223572 -7.349722671508789
      vertex -10.200000047683716 -5.753773093223572 -7.349722671508789
      vertex -11 -5.565078258514404 -7.8396227836608885
    endloop
  endfacet
  facet normal 0 0.933172085407583 0.35942990834940625
    outer loop
      vertex -10.200000047683716 -5.753773093223572 -7.349722671508789
      vertex -10.200000047683716 -5.565078258514404 -7.8396227836608885
      vertex -11 -5.565078258514404 -7.8396227836608885
    endloop
  endfacet
  facet normal 0 0.8903411828959025 0.45529394685139957
    outer loop
      vertex -11 -5.565078258514404 -7.8396227836608885
      vertex -10.200000047683716 -5.565078258514404 -7.8396227836608885
      vertex -11 -5.326056718826294 -8.307036685943604
    endloop
  endfacet
  facet normal -9.826406892054563e-18 0.8903411828959025 0.45529394685139957
    outer loop
      vertex -10.200000047683716 -5.565078258514404 -7.8396227836608885
      vertex -10.200000047683716 -5.326056718826294 -8.307036685943604
      vertex -11 -5.326056718826294 -8.307036685943604
    endloop
  endfacet
  facet normal 0 0.837695368554473 0.5461377752018126
    outer loop
      vertex -11 -5.326056718826294 -8.307036685943604
      vertex -10.200000047683716 -5.326056718826294 -8.307036685943604
      vertex -11 -5.039343595504761 -8.746812629699708
    endloop
  endfacet
  facet normal 0 0.837695368554473 0.5461377752018126
    outer loop
      vertex -10.200000047683716 -5.326056718826294 -8.307036685943604
      vertex -10.200000047683716 -5.039343595504761 -8.746812629699708
      vertex -11 -5.039343595504761 -8.746812629699708
    endloop
  endfacet
  facet normal 0 0.7758140087313827 0.6309616659165136
    outer loop
      vertex -11 -5.039343595504761 -8.746812629699708
      vertex -10.200000047683716 -5.039343595504761 -8.746812629699708
      vertex -11 -4.708099365234375 -9.154101896286011
    endloop
  endfacet
  facet normal 0 0.7758140087313827 0.6309616659165136
    outer loop
      vertex -10.200000047683716 -5.039343595504761 -8.746812629699708
      vertex -10.200000047683716 -4.708099365234375 -9.154101896286011
      vertex -11 -4.708099365234375 -9.154101896286011
    endloop
  endfacet
  facet normal 0 0.7053800618320811 0.7088292942378789
    outer loop
      vertex -11 -4.708099365234375 -9.154101896286011
      vertex -10.200000047683716 -4.708099365234375 -9.154101896286011
      vertex -11 -4.335975885391235 -9.524414587020875
    endloop
  endfacet
  facet normal 0 0.7053800618320811 0.7088292942378789
    outer loop
      vertex -10.200000047683716 -4.708099365234375 -9.154101896286011
      vertex -10.200000047683716 -4.335975885391235 -9.524414587020875
      vertex -11 -4.335975885391235 -9.524414587020875
    endloop
  endfacet
  facet normal 0 0.62716987302141 0.7788825010066078
    outer loop
      vertex -11 -4.335975885391235 -9.524414587020875
      vertex -10.200000047683716 -4.335975885391235 -9.524414587020875
      vertex -11 -3.9270756244659424 -9.853668260574342
    endloop
  endfacet
  facet normal 0 0.62716987302141 0.7788825010066078
    outer loop
      vertex -10.200000047683716 -4.335975885391235 -9.524414587020875
      vertex -10.200000047683716 -3.9270756244659424 -9.853668260574342
      vertex -11 -3.9270756244659424 -9.853668260574342
    endloop
  endfacet
  facet normal 0 0.5420458926514021 0.8403488860346902
    outer loop
      vertex -11 -3.9270756244659424 -9.853668260574342
      vertex -10.200000047683716 -3.9270756244659424 -9.853668260574342
      vertex -11 -3.4859066009521484 -10.13823323249817
    endloop
  endfacet
  facet normal 0 0.5420458926514021 0.8403488860346902
    outer loop
      vertex -10.200000047683716 -3.9270756244659424 -9.853668260574342
      vertex -10.200000047683716 -3.4859066009521484 -10.13823323249817
      vertex -11 -3.4859066009521484 -10.13823323249817
    endloop
  endfacet
  facet normal 0 0.4509456736966264 0.892551398729673
    outer loop
      vertex -11 -3.4859066009521484 -10.13823323249817
      vertex -10.200000047683716 -3.4859066009521484 -10.13823323249817
      vertex -11 -3.017332077026367 -10.374972152709962
    endloop
  endfacet
  facet normal 0 0.4509456736966264 0.892551398729673
    outer loop
      vertex -10.200000047683716 -3.4859066009521484 -10.13823323249817
      vertex -10.200000047683716 -3.017332077026367 -10.374972152709962
      vertex -11 -3.017332077026367 -10.374972152709962
    endloop
  endfacet
  facet normal 0 0.3548747227438636 0.9349138629614313
    outer loop
      vertex -11 -3.017332077026367 -10.374972152709962
      vertex -10.200000047683716 -3.017332077026367 -10.374972152709962
      vertex -11 -2.5265183448791504 -10.561275291442872
    endloop
  endfacet
  facet normal 0.0331990347423936 0.4015223297807335 0.9152473123585916
    outer loop
      vertex -10.200000047683716 -3.017332077026367 -10.374972152709962
      vertex -10.200000047683716 -3 -10.382575798034669
      vertex -11 -2.5265183448791504 -10.561275291442872
    endloop
  endfacet
  facet normal 0 0.35310424819580566 0.9355839833526838
    outer loop
      vertex -10.200000047683716 -3 -10.382575798034669
      vertex -9.400000095367432 -3 -10.382575798034669
      vertex -11 -2.5265183448791504 -10.561275291442872
    endloop
  endfacet
  facet normal 0 0.35310424819580566 0.9355839833526838
    outer loop
      vertex -9.400000095367432 -3 -10.382575798034669
      vertex 11 -2.5265183448791504 -10.561275291442872
      vertex -11 -2.5265183448791504 -10.561275291442872
    endloop
  endfacet
  facet normal 0 0.2548906475329378 0.9669698846397645
    outer loop
      vertex -11 -2.5265183448791504 -10.561275291442872
      vertex 11 -2.5265183448791504 -10.561275291442872
      vertex -11 -2.0188751220703125 -10.69508867263794
    endloop
  endfacet
  facet normal 0 0.2548906475329378 0.9669698846397645
    outer loop
      vertex 11 -2.5265183448791504 -10.561275291442872
      vertex 11 -2.0188751220703125 -10.69508867263794
      vertex -11 -2.0188751220703125 -10.69508867263794
    endloop
  endfacet
  facet normal 0 0.15209735104954197 0.9883655173081021
    outer loop
      vertex -11 -2.0188751220703125 -10.69508867263794
      vertex 11 -2.0188751220703125 -10.69508867263794
      vertex -11 -1.5 -10.774937200546265
    endloop
  endfacet
  facet normal 0 0.15209735104954197 0.9883655173081021
    outer loop
      vertex 11 -2.0188751220703125 -10.69508867263794
      vertex 11 -1.5 -10.774937200546265
      vertex -11 -1.5 -10.774937200546265
    endloop
  endfacet
  facet normal 0 -1 0
    outer loop
      vertex 13 -7.5 1.2000000000000002
      vertex -13 -7.5 1.2000000000000002
      vertex 13 -7.5 -12.8
    endloop
  endfacet
  facet normal 0 -1 0
    outer loop
      vertex -13 -7.5 1.2000000000000002
      vertex -13 -7.5 -12.8
      vertex 13 -7.5 -12.8
    endloop
  endfacet
  facet normal 0 0 -1
    outer loop
      vertex -13 7.5 -12.8
      vertex 13 7.5 -12.8
      vertex -13 1.5 -12.8
    endloop
  endfacet
  facet normal 0 0 -1
    outer loop
      vertex 13 7.5 -12.8
      vertex 13 1.5 -12.8
      vertex -13 1.5 -12.8
    endloop
  endfacet
  facet normal -1 0 0
    outer loop
      vertex 11 -5.972439289093018 -6.324259567260742
      vertex 11 -6 -5.8
      vertex 11 5.972439765930176 -6.324259567260742
    endloop
  endfacet
  facet normal -1 0 0
    outer loop
      vertex 11 5.326057434082031 -8.307036685943604
      vertex 11 1.5 -10.599999952316285
      vertex 11 5.5650787353515625 -7.8396227836608885
    endloop
  endfacet
  facet normal -1 0 0
    outer loop
      vertex 11 1.5 -10.599999952316285
      vertex 11 5.753772735595703 -7.349722671508789
      vertex 11 5.5650787353515625 -7.8396227836608885
    endloop
  endfacet
  facet normal -1 0 0
    outer loop
      vertex 11 -6 1.2000000000000002
      vertex 11 6 1.2000000000000002
      vertex 11 -6 -5.8
    endloop
  endfacet
  facet normal -1 0 0
    outer loop
      vertex 11 6 1.2000000000000002
      vertex 11 6 -5.8
      vertex 11 -6 -5.8
    endloop
  endfacet
  facet normal -1 0 0
    outer loop
      vertex 11 -6 -5.8
      vertex 11 6 -5.8
      vertex 11 5.972439765930176 -6.324259567260742
    endloop
  endfacet
  facet normal -1 0 0
    outer loop
      vertex 11 5.326057434082031 -8.307036685943604
      vertex 11 5.039342880249023 -8.746812629699708
      vertex 11 1.5 -10.599999952316285
    endloop
  endfacet
  facet normal -1 0 0
    outer loop
      vertex 11 5.039342880249023 -8.746812629699708
      vertex 11 4.708099365234375 -9.154101896286011
      vertex 11 1.5 -10.599999952316285
    endloop
  endfacet
  facet normal -1 0 0
    outer loop
      vertex 11 1.5 -10.599999952316285
      vertex 11 4.708099365234375 -9.154101896286011
      vertex 11 4.335975646972656 -9.524414587020875
    endloop
  endfacet
  facet normal -1 0 0
    outer loop
      vertex 11 -1.5 -10.774937200546265
      vertex 11 -2.0188751220703125 -10.69508867263794
      vertex 11 -5.972439289093018 -6.324259567260742
    endloop
  endfacet
  facet normal -1 0 0
    outer loop
      vertex 11 -2.0188751220703125 -10.69508867263794
      vertex 11 -2.5265183448791504 -10.561275291442872
      vertex 11 -5.972439289093018 -6.324259567260742
    endloop
  endfacet
  facet normal -1 0 0
    outer loop
      vertex 11 -5.972439289093018 -6.324259567260742
      vertex 11 -2.5265183448791504 -10.561275291442872
      vertex 11 -3.017332077026367 -10.374972152709962
    endloop
  endfacet
  facet normal -1 0 0
    outer loop
      vertex 11 -1.5 -10.774937200546265
      vertex 11 -5.972439289093018 -6.324259567260742
      vertex 11 -1.5 -10.599999952316285
    endloop
  endfacet
  facet normal -1 0 0
    outer loop
      vertex 11 -5.972439289093018 -6.324259567260742
      vertex 11 5.972439765930176 -6.324259567260742
      vertex 11 -1.5 -10.599999952316285
    endloop
  endfacet
  facet normal -1 0 0
    outer loop
      vertex 11 -1.5 -10.599999952316285
      vertex 11 5.972439765930176 -6.324259567260742
      vertex 11 1.5 -10.599999952316285
    endloop
  endfacet
  facet normal -1 0 0
    outer loop
      vertex 11 5.972439765930176 -6.324259567260742
      vertex 11 5.8900604248046875 -6.842738914489746
      vertex 11 1.5 -10.599999952316285
    endloop
  endfacet
  facet normal -1 0 0
    outer loop
      vertex 11 1.5 -10.599999952316285
      vertex 11 5.8900604248046875 -6.842738914489746
      vertex 11 5.753772735595703 -7.349722671508789
    endloop
  endfacet
  facet normal -1 0 0
    outer loop
      vertex 11 4.335975646972656 -9.524414587020875
      vertex 11 3.9270753860473633 -9.853668260574342
      vertex 11 1.5 -10.599999952316285
    endloop
  endfacet
  facet normal -1 0 0
    outer loop
      vertex 11 3.9270753860473633 -9.853668260574342
      vertex 11 3.4859066009521484 -10.13823323249817
      vertex 11 1.5 -10.599999952316285
    endloop
  endfacet
  facet normal -1 0 0
    outer loop
      vertex 11 1.5 -10.599999952316285
      vertex 11 3.4859066009521484 -10.13823323249817
      vertex 11 3.0173330307006836 -10.374972152709962
    endloop
  endfacet
  facet normal -1 0 0
    outer loop
      vertex 11 3.0173330307006836 -10.374972152709962
      vertex 11 2.526517868041992 -10.561275291442872
      vertex 11 1.5 -10.599999952316285
    endloop
  endfacet
  facet normal -1 0 0
    outer loop
      vertex 11 2.526517868041992 -10.561275291442872
      vertex 11 2.0188751220703125 -10.69508867263794
      vertex 11 1.5 -10.599999952316285
    endloop
  endfacet
  facet normal -1 0 0
    outer loop
      vertex 11 1.5 -10.599999952316285
      vertex 11 2.0188751220703125 -10.69508867263794
      vertex 11 1.5 -10.774937200546265
    endloop
  endfacet
  facet normal -1 0 0
    outer loop
      vertex 11 -3.017332077026367 -10.374972152709962
      vertex 11 -3.4859066009521484 -10.13823323249817
      vertex 11 -5.972439289093018 -6.324259567260742
    endloop
  endfacet
  facet normal -1 0 0
    outer loop
      vertex 11 -3.4859066009521484 -10.13823323249817
      vertex 11 -3.9270756244659424 -9.853668260574342
      vertex 11 -5.972439289093018 -6.324259567260742
    endloop
  endfacet
  facet normal -1 0 0
    outer loop
      vertex 11 -5.972439289093018 -6.324259567260742
      vertex 11 -3.9270756244659424 -9.853668260574342
      vertex 11 -4.335975885391235 -9.524414587020875
    endloop
  endfacet
  facet normal -1 0 0
    outer loop
      vertex 11 -4.708099365234375 -9.154101896286011
      vertex 11 -5.039343595504761 -8.746812629699708
      vertex 11 -4.335975885391235 -9.524414587020875
    endloop
  endfacet
  facet normal -1 0 0
    outer loop
      vertex 11 -5.039343595504761 -8.746812629699708
      vertex 11 -5.326056718826294 -8.307036685943604
      vertex 11 -4.335975885391235 -9.524414587020875
    endloop
  endfacet
  facet normal -1 0 0
    outer loop
      vertex 11 -4.335975885391235 -9.524414587020875
      vertex 11 -5.326056718826294 -8.307036685943604
      vertex 11 -5.565078258514404 -7.8396227836608885
    endloop
  endfacet
  facet normal -1 0 0
    outer loop
      vertex 11 -5.565078258514404 -7.8396227836608885
      vertex 11 -5.753773093223572 -7.349722671508789
      vertex 11 -4.335975885391235 -9.524414587020875
    endloop
  endfacet
  facet normal -1 0 0
    outer loop
      vertex 11 -5.753773093223572 -7.349722671508789
      vertex 11 -5.890061020851135 -6.842738914489746
      vertex 11 -4.335975885391235 -9.524414587020875
    endloop
  endfacet
  facet normal -1 0 0
    outer loop
      vertex 11 -4.335975885391235 -9.524414587020875
      vertex 11 -5.890061020851135 -6.842738914489746
      vertex 11 -5.972439289093018 -6.324259567260742
    endloop
  endfacet
  facet normal 0 0 -1
    outer loop
      vertex 13 -1.5 -10.599999952316285
      vertex 11 -1.5 -10.599999952316285
      vertex 13 1.5 -10.599999952316285
    endloop
  endfacet
  facet normal 0 0 -1
    outer loop
      vertex 11 -1.5 -10.599999952316285
      vertex 11 1.5 -10.599999952316285
      vertex 13 1.5 -10.599999952316285
    endloop
  endfacet
  facet normal 0 0 1
    outer loop
      vertex 10.19999885559082 -6 -5.8
      vertex 10.19999885559082 -3 -5.8
      vertex 9.399999618530273 -6 -5.8
    endloop
  endfacet
  facet normal 0 0 1
    outer loop
      vertex 10.19999885559082 -3 -5.8
      vertex 9.399999618530273 -3 -5.8
      vertex 9.399999618530273 -6 -5.8
    endloop
  endfacet
  facet normal 0 0 -1
    outer loop
      vertex -6.067879676818848 -5.600000023841858 -3.4700201034545897
      vertex 7.457475662231445 -5.600000023841858 -3.4700201034545897
      vertex -6.067879676818848 -6 -3.4700201034545897
    endloop
  endfacet
  facet normal 0 0 -1
    outer loop
      vertex 7.457475662231445 -5.600000023841858 -3.4700201034545897
      vertex 7.457475662231445 -6 -3.4700201034545897
      vertex -6.067879676818848 -6 -3.4700201034545897
    endloop
  endfacet
  facet normal -1 0 0
    outer loop
      vertex -10.200000047683716 -5.972439289093018 -6.324259567260742
      vertex -10.200000047683716 -6 -5.8
      vertex -10.200000047683716 -3 -5.8
    endloop
  endfacet
  facet normal -1 0 0
    outer loop
      vertex -10.200000047683716 -3 -5.8
      vertex -10.200000047683716 -3 -10.382575798034669
      vertex -10.200000047683716 -3.017332077026367 -10.374972152709962
    endloop
  endfacet
  facet normal -1 0 0
    outer loop
      vertex -10.200000047683716 -3.017332077026367 -10.374972152709962
      vertex -10.200000047683716 -3.4859066009521484 -10.13823323249817
      vertex -10.200000047683716 -3 -5.8
    endloop
  endfacet
  facet normal -1 0 0
    outer loop
      vertex -10.200000047683716 -3.4859066009521484 -10.13823323249817
      vertex -10.200000047683716 -3.9270756244659424 -9.853668260574342
      vertex -10.200000047683716 -3 -5.8
    endloop
  endfacet
  facet normal -1 0 0
    outer loop
      vertex -10.200000047683716 -3 -5.8
      vertex -10.200000047683716 -3.9270756244659424 -9.853668260574342
      vertex -10.200000047683716 -4.335975885391235 -9.524414587020875
    endloop
  endfacet
  facet normal -1 0 0
    outer loop
      vertex -10.200000047683716 -3 -5.8
      vertex -10.200000047683716 -5.326056718826294 -8.307036685943604
      vertex -10.200000047683716 -5.565078258514404 -7.8396227836608885
    endloop
  endfacet
  facet normal -1 0 0
    outer loop
      vertex -10.200000047683716 -4.335975885391235 -9.524414587020875
      vertex -10.200000047683716 -4.708099365234375 -9.154101896286011
      vertex -10.200000047683716 -3 -5.8
    endloop
  endfacet
  facet normal -1 0 0
    outer loop
      vertex -10.200000047683716 -4.708099365234375 -9.154101896286011
      vertex -10.200000047683716 -5.039343595504761 -8.746812629699708
      vertex -10.200000047683716 -3 -5.8
    endloop
  endfacet
  facet normal -1 0 0
    outer loop
      vertex -10.200000047683716 -3 -5.8
      vertex -10.200000047683716 -5.039343595504761 -8.746812629699708
      vertex -10.200000047683716 -5.326056718826294 -8.307036685943604
    endloop
  endfacet
  facet normal -1 0 0
    outer loop
      vertex -10.200000047683716 -5.565078258514404 -7.8396227836608885
      vertex -10.200000047683716 -5.753773093223572 -7.349722671508789
      vertex -10.200000047683716 -3 -5.8
    endloop
  endfacet
  facet normal -1 0 0
    outer loop
      vertex -10.200000047683716 -5.753773093223572 -7.349722671508789
      vertex -10.200000047683716 -5.890061020851135 -6.842738914489746
      vertex -10.200000047683716 -3 -5.8
    endloop
  endfacet
  facet normal -1 0 0
    outer loop
      vertex -10.200000047683716 -3 -5.8
      vertex -10.200000047683716 -5.890061020851135 -6.842738914489746
      vertex -10.200000047683716 -5.972439289093018 -6.324259567260742
    endloop
  endfacet
  facet normal -1 0 0
    outer loop
      vertex -6.067879676818848 -5.600000023841858 -2.9779069900512694
      vertex -6.067879676818848 -5.600000023841858 -3.4700201034545897
      vertex -6.067879676818848 -6 -2.9779069900512694
    endloop
  endfacet
  facet normal -1 0 0
    outer loop
      vertex -6.067879676818848 -5.600000023841858 -3.4700201034545897
      vertex -6.067879676818848 -6 -3.4700201034545897
      vertex -6.067879676818848 -6 -2.9779069900512694
    endloop
  endfacet
  facet normal 0 0 1
    outer loop
      vertex 7.457475662231445 -5.600000023841858 -2.9779069900512694
      vertex -6.067879676818848 -5.600000023841858 -2.9779069900512694
      vertex 7.457475662231445 -6 -2.9779069900512694
    endloop
  endfacet
  facet normal 0 0 1
    outer loop
      vertex -6.067879676818848 -5.600000023841858 -2.9779069900512694
      vertex -6.067879676818848 -6 -2.9779069900512694
      vertex 7.457475662231445 -6 -2.9779069900512694
    endloop
  endfacet
  facet normal 1 0 0
    outer loop
      vertex 7.457475662231445 -5.600000023841858 -3.4700201034545897
      vertex 7.457475662231445 -5.600000023841858 -2.9779069900512694
      vertex 7.457475662231445 -6 -3.4700201034545897
    endloop
  endfacet
  facet normal 1 0 0
    outer loop
      vertex 7.457475662231445 -5.600000023841858 -2.9779069900512694
      vertex 7.457475662231445 -6 -2.9779069900512694
      vertex 7.457475662231445 -6 -3.4700201034545897
    endloop
  endfacet
  facet normal 1 0 0
    outer loop
      vertex 10.19999885559082 -5.890061020851135 -6.842738914489746
      vertex 10.19999885559082 -3 -5.8
      vertex 10.19999885559082 -5.972439289093018 -6.324259567260742
    endloop
  endfacet
  facet normal 1 0 0
    outer loop
      vertex 10.19999885559082 -3 -5.8
      vertex 10.19999885559082 -6 -5.8
      vertex 10.19999885559082 -5.972439289093018 -6.324259567260742
    endloop
  endfacet
  facet normal 1 0 0
    outer loop
      vertex 10.19999885559082 -3.9270756244659424 -9.853668260574342
      vertex 10.19999885559082 -3.4859066009521484 -10.13823323249817
      vertex 10.19999885559082 -3 -5.8
    endloop
  endfacet
  facet normal 1 0 0
    outer loop
      vertex 10.19999885559082 -3.4859066009521484 -10.13823323249817
      vertex 10.19999885559082 -3.017332077026367 -10.374972152709962
      vertex 10.19999885559082 -3 -5.8
    endloop
  endfacet
  facet normal 1 0 0
    outer loop
      vertex 10.19999885559082 -3 -5.8
      vertex 10.19999885559082 -3.017332077026367 -10.374972152709962
      vertex 10.19999885559082 -3 -10.382575798034669
    endloop
  endfacet
  facet normal 1 0 0
    outer loop
      vertex 10.19999885559082 -3 -5.8
      vertex 10.19999885559082 -5.326056718826294 -8.307036685943604
      vertex 10.19999885559082 -5.039343595504761 -8.746812629699708
    endloop
  endfacet
  facet normal 1 0 0
    outer loop
      vertex 10.19999885559082 -5.890061020851135 -6.842738914489746
      vertex 10.19999885559082 -5.753773093223572 -7.349722671508789
      vertex 10.19999885559082 -3 -5.8
    endloop
  endfacet
  facet normal 1 0 0
    outer loop
      vertex 10.19999885559082 -5.753773093223572 -7.349722671508789
      vertex 10.19999885559082 -5.565078258514404 -7.8396227836608885
      vertex 10.19999885559082 -3 -5.8
    endloop
  endfacet
  facet normal 1 0 0
    outer loop
      vertex 10.19999885559082 -3 -5.8
      vertex 10.19999885559082 -5.565078258514404 -7.8396227836608885
      vertex 10.19999885559082 -5.326056718826294 -8.307036685943604
    endloop
  endfacet
  facet normal 1 0 0
    outer loop
      vertex 10.19999885559082 -5.039343595504761 -8.746812629699708
      vertex 10.19999885559082 -4.708099365234375 -9.154101896286011
      vertex 10.19999885559082 -3 -5.8
    endloop
  endfacet
  facet normal 1 0 0
    outer loop
      vertex 10.19999885559082 -4.708099365234375 -9.154101896286011
      vertex 10.19999885559082 -4.335975885391235 -9.524414587020875
      vertex 10.19999885559082 -3 -5.8
    endloop
  endfacet
  facet normal 1 0 0
    outer loop
      vertex 10.19999885559082 -3 -5.8
      vertex 10.19999885559082 -4.335975885391235 -9.524414587020875
      vertex 10.19999885559082 -3.9270756244659424 -9.853668260574342
    endloop
  endfacet
  facet normal -1 0 0
    outer loop
      vertex 9.399999618530273 -5.972439289093018 -6.324259567260742
      vertex 9.399999618530273 -6 -5.8
      vertex 9.399999618530273 -3 -5.8
    endloop
  endfacet
  facet normal -1 0 0
    outer loop
      vertex 9.399999618530273 -3 -5.8
      vertex 9.399999618530273 -3 -10.382575798034669
      vertex 9.399999618530273 -3.017332077026367 -10.374972152709962
    endloop
  endfacet
  facet normal -1 0 0
    outer loop
      vertex 9.399999618530273 -3.017332077026367 -10.374972152709962
      vertex 9.399999618530273 -3.4859066009521484 -10.13823323249817
      vertex 9.399999618530273 -3 -5.8
    endloop
  endfacet
  facet normal -1 0 0
    outer loop
      vertex 9.399999618530273 -3.4859066009521484 -10.13823323249817
      vertex 9.399999618530273 -3.9270756244659424 -9.853668260574342
      vertex 9.399999618530273 -3 -5.8
    endloop
  endfacet
  facet normal -1 0 0
    outer loop
      vertex 9.399999618530273 -3 -5.8
      vertex 9.399999618530273 -3.9270756244659424 -9.853668260574342
      vertex 9.399999618530273 -4.335975885391235 -9.524414587020875
    endloop
  endfacet
  facet normal -1 0 0
    outer loop
      vertex 9.399999618530273 -3 -5.8
      vertex 9.399999618530273 -5.326056718826294 -8.307036685943604
      vertex 9.399999618530273 -5.565078258514404 -7.8396227836608885
    endloop
  endfacet
  facet normal -1 0 0
    outer loop
      vertex 9.399999618530273 -4.335975885391235 -9.524414587020875
      vertex 9.399999618530273 -4.708099365234375 -9.154101896286011
      vertex 9.399999618530273 -3 -5.8
    endloop
  endfacet
  facet normal -1 0 0
    outer loop
      vertex 9.399999618530273 -4.708099365234375 -9.154101896286011
      vertex 9.399999618530273 -5.039343595504761 -8.746812629699708
      vertex 9.399999618530273 -3 -5.8
    endloop
  endfacet
  facet normal -1 0 0
    outer loop
      vertex 9.399999618530273 -3 -5.8
      vertex 9.399999618530273 -5.039343595504761 -8.746812629699708
      vertex 9.399999618530273 -5.326056718826294 -8.307036685943604
    endloop
  endfacet
  facet normal -1 0 0
    outer loop
      vertex 9.399999618530273 -5.565078258514404 -7.8396227836608885
      vertex 9.399999618530273 -5.753773093223572 -7.349722671508789
      vertex 9.399999618530273 -3 -5.8
    endloop
  endfacet
  facet normal -1 0 0
    outer loop
      vertex 9.399999618530273 -5.753773093223572 -7.349722671508789
      vertex 9.399999618530273 -5.890061020851135 -6.842738914489746
      vertex 9.399999618530273 -3 -5.8
    endloop
  endfacet
  facet normal -1 0 0
    outer loop
      vertex 9.399999618530273 -3 -5.8
      vertex 9.399999618530273 -5.890061020851135 -6.842738914489746
      vertex 9.399999618530273 -5.972439289093018 -6.324259567260742
    endloop
  endfacet
  facet normal 0 1 0
    outer loop
      vertex 9.399999618530273 -3 -10.382575798034669
      vertex 9.399999618530273 -3 -5.8
      vertex 10.19999885559082 -3 -10.382575798034669
    endloop
  endfacet
  facet normal 0 1 0
    outer loop
      vertex 9.399999618530273 -3 -5.8
      vertex 10.19999885559082 -3 -5.8
      vertex 10.19999885559082 -3 -10.382575798034669
    endloop
  endfacet
  facet normal 0 -1 0
    outer loop
      vertex 10.19999885559082 3 -5.8
      vertex 9.399999618530273 3 -5.8
      vertex 10.19999885559082 3 -10.382575798034669
    endloop
  endfacet
  facet normal 0 -1 0
    outer loop
      vertex 9.399999618530273 3 -5.8
      vertex 9.399999618530273 3 -10.382575798034669
      vertex 10.19999885559082 3 -10.382575798034669
    endloop
  endfacet
  facet normal -1 0 0
    outer loop
      vertex 9.399999618530273 6 -5.8
      vertex 9.399999618530273 5.972439765930176 -6.324259567260742
      vertex 9.399999618530273 3 -5.8
    endloop
  endfacet
  facet normal -1 0 0
    outer loop
      vertex 9.399999618530273 5.972439765930176 -6.324259567260742
      vertex 9.399999618530273 5.8900604248046875 -6.842738914489746
      vertex 9.399999618530273 3 -5.8
    endloop
  endfacet
  facet normal -1 0 0
    outer loop
      vertex 9.399999618530273 3 -5.8
      vertex 9.399999618530273 5.8900604248046875 -6.842738914489746
      vertex 9.399999618530273 5.753772735595703 -7.349722671508789
    endloop
  endfacet
  facet normal -1 0 0
    outer loop
      vertex 9.399999618530273 5.753772735595703 -7.349722671508789
      vertex 9.399999618530273 5.5650787353515625 -7.8396227836608885
      vertex 9.399999618530273 3 -5.8
    endloop
  endfacet
  facet normal -1 0 0
    outer loop
      vertex 9.399999618530273 5.5650787353515625 -7.8396227836608885
      vertex 9.399999618530273 5.326057434082031 -8.307036685943604
      vertex 9.399999618530273 3 -5.8
    endloop
  endfacet
  facet normal -1 0 0
    outer loop
      vertex 9.399999618530273 3 -5.8
      vertex 9.399999618530273 5.326057434082031 -8.307036685943604
      vertex 9.399999618530273 5.039342880249023 -8.746812629699708
    endloop
  endfacet
  facet normal -1 0 0
    outer loop
      vertex 9.399999618530273 5.039342880249023 -8.746812629699708
      vertex 9.399999618530273 4.708099365234375 -9.154101896286011
      vertex 9.399999618530273 3 -5.8
    endloop
  endfacet
  facet normal -1 0 0
    outer loop
      vertex 9.399999618530273 4.708099365234375 -9.154101896286011
      vertex 9.399999618530273 4.335975646972656 -9.524414587020875
      vertex 9.399999618530273 3 -5.8
    endloop
  endfacet
  facet normal -1 0 0
    outer loop
      vertex 9.399999618530273 3 -5.8
      vertex 9.399999618530273 4.335975646972656 -9.524414587020875
      vertex 9.399999618530273 3.9270753860473633 -9.853668260574342
    endloop
  endfacet
  facet normal -1 0 0
    outer loop
      vertex 9.399999618530273 3.9270753860473633 -9.853668260574342
      vertex 9.399999618530273 3.4859066009521484 -10.13823323249817
      vertex 9.399999618530273 3 -5.8
    endloop
  endfacet
  facet normal -1 0 0
    outer loop
      vertex 9.399999618530273 3.4859066009521484 -10.13823323249817
      vertex 9.399999618530273 3.0173330307006836 -10.374972152709962
      vertex 9.399999618530273 3 -5.8
    endloop
  endfacet
  facet normal -1 0 0
    outer loop
      vertex 9.399999618530273 3 -5.8
      vertex 9.399999618530273 3.0173330307006836 -10.374972152709962
      vertex 9.399999618530273 3 -10.382575798034669
    endloop
  endfacet
  facet normal 0 0 1
    outer loop
      vertex 9.399999618530273 6 -5.8
      vertex 9.399999618530273 3 -5.8
      vertex 10.19999885559082 6 -5.8
    endloop
  endfacet
  facet normal 0 0 1
    outer loop
      vertex 9.399999618530273 3 -5.8
      vertex 10.19999885559082 3 -5.8
      vertex 10.19999885559082 6 -5.8
    endloop
  endfacet
  facet normal 1 0 0
    outer loop
      vertex -9.400000095367432 3 -10.382575798034669
      vertex -9.400000095367432 3.0173330307006836 -10.374972152709962
      vertex -9.400000095367432 3 -5.8
    endloop
  endfacet
  facet normal 1 0 0
    outer loop
      vertex -9.400000095367432 3.0173330307006836 -10.374972152709962
      vertex -9.400000095367432 3.4859066009521484 -10.13823323249817
      vertex -9.400000095367432 3 -5.8
    endloop
  endfacet
  facet normal 1 0 0
    outer loop
      vertex -9.400000095367432 3 -5.8
      vertex -9.400000095367432 3.4859066009521484 -10.13823323249817
      vertex -9.400000095367432 3.9270753860473633 -9.853668260574342
    endloop
  endfacet
  facet normal 1 0 0
    outer loop
      vertex -9.400000095367432 5.039342880249023 -8.746812629699708
      vertex -9.400000095367432 5.326057434082031 -8.307036685943604
      vertex -9.400000095367432 3 -5.8
    endloop
  endfacet
  facet normal 1 0 0
    outer loop
      vertex -9.400000095367432 5.326057434082031 -8.307036685943604
      vertex -9.400000095367432 5.5650787353515625 -7.8396227836608885
      vertex -9.400000095367432 3 -5.8
    endloop
  endfacet
  facet normal 1 0 0
    outer loop
      vertex -9.400000095367432 3 -5.8
      vertex -9.400000095367432 5.5650787353515625 -7.8396227836608885
      vertex -9.400000095367432 5.753772735595703 -7.349722671508789
    endloop
  endfacet
  facet normal 1 0 0
    outer loop
      vertex -9.400000095367432 5.753772735595703 -7.349722671508789
      vertex -9.400000095367432 5.8900604248046875 -6.842738914489746
      vertex -9.400000095367432 3 -5.8
    endloop
  endfacet
  facet normal 1 0 0
    outer loop
      vertex -9.400000095367432 5.8900604248046875 -6.842738914489746
      vertex -9.400000095367432 5.972439765930176 -6.324259567260742
      vertex -9.400000095367432 3 -5.8
    endloop
  endfacet
  facet normal 1 0 0
    outer loop
      vertex -9.400000095367432 3 -5.8
      vertex -9.400000095367432 5.972439765930176 -6.324259567260742
      vertex -9.400000095367432 6 -5.8
    endloop
  endfacet
  facet normal 1 0 0
    outer loop
      vertex -9.400000095367432 3.9270753860473633 -9.853668260574342
      vertex -9.400000095367432 4.335975646972656 -9.524414587020875
      vertex -9.400000095367432 3 -5.8
    endloop
  endfacet
  facet normal 1 0 0
    outer loop
      vertex -9.400000095367432 4.335975646972656 -9.524414587020875
      vertex -9.400000095367432 4.708099365234375 -9.154101896286011
      vertex -9.400000095367432 3 -5.8
    endloop
  endfacet
  facet normal 1 0 0
    outer loop
      vertex -9.400000095367432 3 -5.8
      vertex -9.400000095367432 4.708099365234375 -9.154101896286011
      vertex -9.400000095367432 5.039342880249023 -8.746812629699708
    endloop
  endfacet
  facet normal 0 -1 0
    outer loop
      vertex -9.400000095367432 3 -5.8
      vertex -10.200000047683716 3 -5.8
      vertex -9.400000095367432 3 -10.382575798034669
    endloop
  endfacet
  facet normal 0 -1 0
    outer loop
      vertex -10.200000047683716 3 -5.8
      vertex -10.200000047683716 3 -10.382575798034669
      vertex -9.400000095367432 3 -10.382575798034669
    endloop
  endfacet
  facet normal 0 0 1
    outer loop
      vertex -10.200000047683716 3 -5.8
      vertex -9.400000095367432 3 -5.8
      vertex -10.200000047683716 6 -5.8
    endloop
  endfacet
  facet normal 0 0 1
    outer loop
      vertex -9.400000095367432 3 -5.8
      vertex -9.400000095367432 6 -5.8
      vertex -10.200000047683716 6 -5.8
    endloop
  endfacet
  facet normal 0 1 0
    outer loop
      vertex -10.200000047683716 -3 -5.8
      vertex -9.400000095367432 -3 -5.8
      vertex -10.200000047683716 -3 -10.382575798034669
    endloop
  endfacet
  facet normal 0 1 0
    outer loop
      vertex -9.400000095367432 -3 -5.8
      vertex -9.400000095367432 -3 -10.382575798034669
      vertex -10.200000047683716 -3 -10.382575798034669
    endloop
  endfacet
endsolid OpenSCAD_Model
